<svg width="197" height="221" viewBox="0 0 197 221" fill="none" xmlns="http://www.w3.org/2000/svg">
<g clip-path="url(#clip0_34_5024)">
<mask id="mask0_34_5024" style="mask-type:luminance" maskUnits="userSpaceOnUse" x="0" y="0" width="197" height="221">
<path d="M197 0H0V221H197V0Z" fill="white"/>
</mask>
<g mask="url(#mask0_34_5024)">
<path d="M197 184.905V0H166.961H0V211.768C0 216.866 4.92341 221 10.9962 221L98.9485 194.137H186.004C192.076 194.137 197 190.003 197 184.905Z" fill="black"/>
</g>
</g>
<g clip-path="url(#clip1_34_5024)">
<path d="M36.92 168.715C36.9039 168.704 36.8878 168.692 36.8715 168.681C52.6409 142.162 75.7955 117.14 92.1225 108.181C92.1311 108.152 92.1427 108.123 92.1571 108.094C75.5762 116.825 51.2739 141.073 34.165 166.662C34.1293 166.634 34.0939 166.606 34.0583 166.578C34.0939 166.606 34.1289 166.635 34.1643 166.663C27.8144 176.16 23.2388 184.671 20.5093 191.672C21.8598 192.492 23.4336 192.973 25.1162 193C27.5237 186.044 31.4526 177.793 36.8711 168.682C36.8872 168.693 36.9037 168.704 36.92 168.715Z" fill="#FFC700" fill-opacity="0.5"/>
<path d="M24.0167 156.9C24.0272 156.912 24.0375 156.924 24.0482 156.936C24.0377 156.924 24.0276 156.912 24.0171 156.899C46.0701 136.01 74.5165 115.679 92.0265 107.871C92.0215 107.85 92.0166 107.829 92.0114 107.808C74.3069 115.365 44.9702 134.63 21.859 154.238C21.8298 154.2 21.8008 154.163 21.7716 154.125C21.8008 154.163 21.8289 154.201 21.8581 154.239C19.7931 155.991 17.8397 157.694 16 159.342V164.898C18.6327 162.157 21.3622 159.451 24.0167 156.9Z" fill="#FFC700" fill-opacity="0.5"/>
<path d="M32.3869 165.218C32.3528 165.19 32.3189 165.161 32.2846 165.132C50.3146 140.269 75.3949 116.627 92.1492 108.05C92.1254 108.037 92.1059 108.024 92.09 108.01C75.1023 116.385 49.0023 139.116 29.7458 162.885C29.7304 162.87 29.7145 162.856 29.6992 162.842C29.7145 162.856 29.7299 162.871 29.7454 162.885C23.9349 170.058 19.3316 176.604 16 182.269V183.608C16 185.689 16.6682 187.611 17.797 189.167C20.8084 182.432 25.6682 174.257 32.2841 165.133C32.3183 165.162 32.3528 165.19 32.3869 165.219V165.218Z" fill="#FFC700" fill-opacity="0.5"/>
<path d="M28.0808 161.285C28.0507 161.255 28.0207 161.226 27.9909 161.196C48.0988 138.244 74.9094 116.194 92.0582 107.976C92.0518 107.966 92.0475 107.955 92.0443 107.945C92.0428 107.937 92.0415 107.93 92.0402 107.923C92.0402 107.926 92.0402 107.928 92.0402 107.931C92.0389 107.926 92.0385 107.921 92.0374 107.916C74.6738 115.9 46.8946 136.964 25.6347 158.735C25.6122 158.71 25.5901 158.685 25.5675 158.661C25.5899 158.685 25.6117 158.711 25.6343 158.735C22.0257 162.431 18.8089 165.937 16 169.215V176.246C19.2217 171.686 23.2305 166.63 27.9904 161.197C28.0203 161.227 28.0507 161.255 28.0808 161.285Z" fill="#FFC700" fill-opacity="0.5"/>
<path d="M91.8383 106.865C91.7885 106.854 91.7518 106.837 91.7252 106.817C74.5225 109.409 44.0561 108.412 16 104.265V107.344C44.1694 109.977 74.6819 109.76 91.8383 106.865Z" fill="#FFC700" fill-opacity="0.5"/>
<path d="M92.1744 108.637C92.1664 108.618 92.16 108.598 92.1546 108.579C77.5486 118.562 61.6516 146.957 54.4168 177.526C54.3745 177.512 54.3323 177.498 54.29 177.484C54.3325 177.498 54.3745 177.513 54.4166 177.527C54.0304 179.288 53.6821 180.988 53.3633 182.64L57.1723 181.235C57.3229 180.312 57.4806 179.392 57.6463 178.478C57.6716 178.484 57.6969 178.49 57.7222 178.497C57.6969 178.49 57.6716 178.484 57.6463 178.477C63.3241 147.49 77.8979 118.746 92.1744 108.637Z" fill="#FFC700" fill-opacity="0.5"/>
<path d="M46.9486 174.568C46.9069 174.549 46.8655 174.529 46.8239 174.509C57.7357 145.297 76.7601 118.036 92.1267 108.424L92.1171 108.358C76.4571 117.797 56.1949 144.479 43.8253 172.995C43.8107 172.987 43.7957 172.979 43.7811 172.971C43.7957 172.979 43.8105 172.987 43.8253 172.995C41.4872 178.386 39.5782 183.504 38.0908 188.273L42.8634 186.513C43.9476 182.692 45.2662 178.68 46.8235 174.511C46.8649 174.53 46.9069 174.549 46.9486 174.568Z" fill="#FFC700" fill-opacity="0.5"/>
<path d="M92.1449 108.534C92.144 108.528 92.1414 108.522 92.1408 108.516L92.1339 108.47C76.9846 118.199 58.8651 145.837 49.0182 175.498C48.9796 175.482 48.9405 175.465 48.9019 175.448C48.9405 175.465 48.9791 175.483 49.0178 175.499C47.8956 178.88 46.924 182.159 46.0981 185.32L50.4476 183.715C51.0283 181.087 51.6168 178.718 52.1399 176.74C52.1622 176.748 52.1848 176.756 52.2071 176.764C52.185 176.756 52.1627 176.748 52.1401 176.739C60.475 146.52 77.3084 118.417 92.1451 108.534H92.1449Z" fill="#FFC700" fill-opacity="0.5"/>
<path d="M41.8171 171.868C41.7868 171.85 41.7561 171.833 41.7259 171.815C55.1179 143.846 76.2478 117.618 92.1107 108.31L92.1058 108.278C92.1064 108.265 92.1101 108.251 92.112 108.238C75.9746 117.349 53.6565 142.894 38.8674 170.041C38.8339 170.019 38.8005 169.997 38.7668 169.975C38.8003 169.997 38.8335 170.02 38.867 170.042C34.3343 178.643 31.2312 185.724 29.187 191.558L34.4703 189.609C36.2613 184.156 38.6786 178.18 41.7259 171.816C41.7563 171.833 41.7872 171.851 41.8173 171.868L41.8171 171.868Z" fill="#FFC700" fill-opacity="0.5"/>
<path d="M91.8338 107.177C91.8312 107.169 91.8286 107.162 91.8261 107.154C74.5845 111.305 43.9958 116.641 16 120.352V123.534C43.8725 118.297 74.5423 111.69 91.8473 107.219C91.843 107.205 91.8383 107.191 91.8338 107.177Z" fill="#FFC700" fill-opacity="0.5"/>
<path d="M91.8089 107.105L91.8072 107.1C91.8072 107.1 91.8082 107.101 91.8085 107.101C91.808 107.1 91.8078 107.099 91.8074 107.098C91.8031 107.082 91.8237 107.058 91.8679 107.026C74.706 110.646 44.1632 113.849 16 114.943V118.092C44.0606 115.472 74.6021 111.033 91.81 107.108C91.81 107.107 91.8093 107.106 91.8089 107.105Z" fill="#FFC700" fill-opacity="0.5"/>
<path d="M92.1074 106.889C92.0653 106.889 92.0256 106.888 91.9898 106.886C74.8699 110.009 44.2683 111.106 16 109.56V112.684C44.2576 112.693 74.862 110.367 91.9868 106.952C92.0222 106.933 92.0617 106.912 92.1074 106.889V106.889Z" fill="#FFC700" fill-opacity="0.5"/>
<path d="M91.872 107.297C91.8686 107.286 91.8656 107.276 91.8622 107.265C74.4998 111.971 43.759 119.504 16.0005 125.84V129.117C43.5636 121.231 74.4215 112.37 91.8821 107.328L91.8723 107.297H91.872Z" fill="#FFC700" fill-opacity="0.5"/>
<path d="M93.6117 106.929C76.1539 112.596 43.7444 125.344 16 137.508V141.205C42.7552 127.606 74.5944 113.563 92.4865 107.357C92.7534 107.24 93.1276 107.098 93.6115 106.929H93.6117Z" fill="#FFC700" fill-opacity="0.5"/>
<path d="M17.1992 147.441C17.175 147.401 17.1503 147.361 17.126 147.32C42.5679 131.046 73.8689 114.557 91.9936 107.647C92.0151 107.612 92.0692 107.57 92.1554 107.519C74.0451 114.069 42.2581 129.215 16 143.973V148.043C16.3723 147.803 16.7467 147.563 17.1254 147.32C17.1497 147.361 17.175 147.4 17.199 147.44L17.1992 147.441Z" fill="#FFC700" fill-opacity="0.5"/>
<path d="M20.4613 152.368C20.4364 152.333 20.4117 152.299 20.3873 152.264C44.2201 133.607 74.1635 115.135 92.0003 107.763C91.9999 107.761 91.9994 107.76 91.999 107.758L91.985 107.699C73.9745 114.807 43.2286 132.136 18.4407 149.42C18.4263 149.398 18.4124 149.377 18.3982 149.355C18.4124 149.377 18.4257 149.399 18.4401 149.42C17.6043 150.011 16.7915 150.589 16 151.156V155.759C17.4043 154.62 18.8664 153.455 20.3862 152.265C20.4111 152.299 20.4364 152.333 20.4613 152.368Z" fill="#FFC700" fill-opacity="0.5"/>
<path d="M93.7707 106.811C76.6263 111.94 44.3984 122.175 16 131.517V134.96C44.961 123.626 78.4939 111.544 95.3394 106.362C94.7401 106.534 94.2165 106.684 93.7705 106.811L93.7707 106.811Z" fill="#FFC700" fill-opacity="0.5"/>
<path d="M92.1741 108.762C92.1752 108.735 92.1786 108.709 92.1827 108.682C78.1515 118.876 64.543 147.822 59.9963 179.051C59.9839 179.048 59.9714 179.045 59.9588 179.043C59.9714 179.045 59.9837 179.048 59.9961 179.051C59.9375 179.455 59.8813 179.856 59.8262 180.256L63.3957 178.939C66.4683 147.757 78.613 118.993 92.1741 108.762V108.762Z" fill="#FFC700" fill-opacity="0.5"/>
<path d="M121.895 153.792C121.832 153.89 121.769 153.987 121.706 154.083C100.885 138.029 89.7179 122.199 91.1768 112.881C90.9755 113.763 90.8427 114.759 90.8174 115.876C91.1725 125.842 101.54 141.143 119.848 156.751C119.808 156.806 119.768 156.861 119.728 156.915C119.768 156.86 119.81 156.807 119.85 156.752C123.515 159.877 127.317 162.856 131.19 165.666H138.644C132.97 162.175 127.281 158.302 121.708 154.084C121.771 153.988 121.833 153.889 121.896 153.792L121.895 153.792Z" fill="#FFC700" fill-opacity="0.5"/>
<path d="M127.156 143.833C127.115 143.93 127.073 144.028 127.032 144.125C103.424 131.692 90.3432 118.922 91.7767 111.263C91.6793 111.624 91.6007 111.99 91.5419 112.36C90.8819 120.577 103.394 133.939 125.654 147.148C125.617 147.222 125.581 147.298 125.544 147.373C125.581 147.298 125.62 147.224 125.656 147.149C138.502 154.771 152.577 161.144 165.805 165.667H172.734C174.913 165.667 176.915 164.902 178.497 163.625C162.264 159.752 143.685 152.895 127.034 144.126C127.076 144.029 127.115 143.93 127.156 143.833Z" fill="#FFC700" fill-opacity="0.5"/>
<path d="M91.0715 111.731C86.277 122.26 94.155 143.164 112.515 165.008C112.477 165.044 112.439 165.08 112.401 165.116C112.439 165.08 112.479 165.046 112.517 165.01C112.702 165.23 112.889 165.448 113.074 165.667H117.62C116.676 164.711 115.735 163.741 114.8 162.756C114.886 162.665 114.971 162.573 115.058 162.482C114.971 162.573 114.885 162.664 114.799 162.755C92.4722 137.825 89.3199 123.138 90.3816 115.369C90.5314 113.722 90.9262 112.232 91.5744 110.922C91.4002 111.185 91.2328 111.456 91.0717 111.732L91.0715 111.731Z" fill="#FFC700" fill-opacity="0.5"/>
<path d="M91.6024 111.061C91.0937 112.157 90.6257 113.579 90.3813 115.369C89.4119 126.025 98.7128 143.273 116.361 161.061C116.321 161.106 116.282 161.151 116.242 161.195C116.282 161.151 116.323 161.107 116.362 161.062C117.918 162.629 119.503 164.165 121.111 165.666H126.715C123.871 163.377 121.101 161.013 118.439 158.594C118.515 158.499 118.588 158.402 118.664 158.307C118.589 158.402 118.514 158.498 118.438 158.593C95.5708 136.997 90.6425 123.57 90.8173 115.876C90.7536 114.09 91.0113 112.475 91.6027 111.061H91.6024Z" fill="#FFC700" fill-opacity="0.5"/>
<path d="M124.734 148.959C124.682 149.057 124.63 149.155 124.577 149.253C103.777 135.874 91.7735 122.46 91.4053 113.821C90.9873 127.841 114.957 146.337 122.954 152.104C122.914 152.169 122.876 152.234 122.836 152.299C122.876 152.234 122.916 152.171 122.955 152.106C130.274 157.187 137.726 161.73 145.058 165.666H155.619C145.165 161.203 134.486 155.626 124.579 149.254C124.632 149.156 124.682 149.057 124.734 148.959H124.734Z" fill="#FFC700" fill-opacity="0.5"/>
<path d="M131.696 126.952C131.685 127.04 131.672 127.128 131.66 127.217C107.782 122.072 93.3619 115.776 92.208 110.848C93.2746 116.966 106.344 123.626 131.101 130.659C131.081 130.767 131.06 130.875 131.039 130.983C131.06 130.875 131.083 130.768 131.104 130.66C149.338 135.45 166.917 138.486 182 139.964V134.086C166.008 133.106 148.087 130.755 131.663 127.217C131.675 127.129 131.685 127.04 131.696 126.952V126.952Z" fill="#FFC700" fill-opacity="0.5"/>
<path d="M130.659 132.805C130.639 132.897 130.617 132.989 130.596 133.082C105.574 125.195 91.2411 116.336 92.0659 110.379C92.0121 110.661 91.9726 110.945 91.9516 111.23C91.8655 117.708 105.791 127.421 129.751 136.398C129.724 136.495 129.696 136.592 129.669 136.689C129.696 136.592 129.726 136.496 129.753 136.399C146.772 142.774 165.554 147.542 182 150.056V144.183C165.751 142.214 147.354 138.363 130.599 133.083C130.62 132.99 130.638 132.897 130.659 132.805Z" fill="#FFC700" fill-opacity="0.5"/>
<path d="M129.139 138.439C129.108 138.535 129.077 138.63 129.047 138.726C106.655 129.362 93.2008 119.453 91.9722 112.608C93.0246 123.24 114.517 135.345 127.928 141.903C127.895 141.989 127.863 142.075 127.83 142.161C127.863 142.075 127.897 141.99 127.93 141.904C147.24 150.889 165.769 156.866 181.232 160.017C181.725 158.869 182 157.603 182 156.271V154.273C165.396 151.386 146.287 145.935 129.049 138.727C129.08 138.631 129.109 138.534 129.139 138.439L129.139 138.439Z" fill="#FFC700" fill-opacity="0.5"/>
<path d="M92.1992 109.232C92.2003 109.221 92.2009 109.21 92.2022 109.199C92.2001 109.188 92.1998 109.177 92.1983 109.166C81.7582 118.95 77.4494 144.045 81.8302 172.139L84.6117 171.113C79.0098 143.556 82.1954 118.96 92.199 109.232H92.1992Z" fill="#FFC700" fill-opacity="0.5"/>
<path d="M90.7312 112.339C90.5057 112.762 90.2935 113.197 90.0965 113.646C86.2204 124.656 92.015 144.508 106.326 165.666H110.13C93.2623 143.837 86.2071 123.103 90.7312 112.339Z" fill="#FFC700" fill-opacity="0.5"/>
<path d="M92.1935 109.121C92.1916 109.103 92.188 109.085 92.1873 109.067L92.1869 109.055C80.9459 118.952 74.6003 144.97 76.8548 173.975L79.7886 172.893C76.2896 144.419 81.4289 118.951 92.1935 109.121Z" fill="#FFC700" fill-opacity="0.5"/>
<path d="M92.1919 109.354L92.1923 109.335C92.1928 109.318 92.1949 109.301 92.1958 109.284C82.4963 118.977 80.0929 143.226 86.5651 170.393L89.251 169.402C81.5642 142.783 82.9005 118.999 92.1917 109.354H92.1919Z" fill="#FFC700" fill-opacity="0.5"/>
<path d="M92.1768 108.885L92.174 108.842C92.174 108.844 92.1747 108.845 92.1747 108.846C92.1747 108.843 92.1742 108.841 92.174 108.838C92.1736 108.83 92.174 108.822 92.174 108.814C79.0532 118.98 68.009 147.212 65.8623 178.029L69.1993 176.798C70.0558 146.5 79.6407 118.965 92.1768 108.885Z" fill="#FFC700" fill-opacity="0.5"/>
<path d="M89.3537 115.612C85.7209 126.807 89.5953 144.756 100.529 165.666H103.781C91.4738 145.613 86.415 126.88 89.3537 115.612Z" fill="#FFC700" fill-opacity="0.5"/>
<path d="M92.1877 109.573C92.1882 109.552 92.1867 109.531 92.1877 109.51C83.8241 119.039 85.0143 141.766 95.6923 167.026L98.3454 166.047C86.4056 141.365 84.1861 119.055 92.1875 109.573H92.1877Z" fill="#FFC700" fill-opacity="0.5"/>
<path d="M92.1889 109.464L92.1906 109.4C83.1805 119.01 82.5956 142.475 91.1557 168.699L93.7992 167.724C84.0111 142.058 83.5592 119.026 92.1889 109.464V109.464Z" fill="#FFC700" fill-opacity="0.5"/>
<path d="M73.1356 47.5858C73.1828 47.5917 73.23 47.5975 73.2774 47.6034C73.23 47.5975 73.183 47.5901 73.1356 47.5845C73.6819 37.6532 75.1634 27.9553 77.352 19H72.4271C70.7281 27.869 69.7647 37.4529 69.7297 47.2639C69.7152 47.263 69.7001 47.2624 69.6855 47.2613C69.7001 47.2624 69.7152 47.2637 69.7297 47.2643C69.636 73.5926 76.2509 94.4055 85.9278 102.385C86.5833 102.87 87.2582 103.311 87.9529 103.706C77.8249 96.9574 71.6081 75.3605 73.1358 47.5856L73.1356 47.5858Z" fill="#FFC700" fill-opacity="0.5"/>
<path d="M180.169 22.7871C162.545 31.3655 135.826 50.7563 114.893 70.6591C96.7943 87.8661 87.9718 100.748 90.5167 104.83C90.5494 104.847 90.5837 104.861 90.6161 104.877C88.883 100.991 98.4435 89.1674 117.055 73.3168C117.086 73.3563 117.116 73.3961 117.147 73.4357C117.116 73.3961 117.086 73.3557 117.055 73.3161C138.02 55.4618 164.127 37.8967 182.001 29.1578V28.3955C182.001 26.2933 181.319 24.3525 180.169 22.7871H180.169Z" fill="#FFC700" fill-opacity="0.5"/>
<path d="M109.153 64.6832C109.178 64.7065 109.203 64.7291 109.228 64.7524C109.203 64.7291 109.179 64.7056 109.154 64.6825C123.352 47.0908 141.29 30.0712 156.54 19H146.743C133.71 29.9324 119.214 45.304 106.612 62.4392C106.585 62.4168 106.558 62.3953 106.531 62.3729C106.558 62.3953 106.585 62.4175 106.611 62.4401C87.983 88.8961 87.5056 99.2582 89.3264 103.241C89.5011 103.577 89.7 103.895 89.9227 104.197C86.5463 99.0999 93.4026 84.1988 109.153 64.6832Z" fill="#FFC700" fill-opacity="0.5"/>
<path d="M110.911 66.368C110.877 66.3332 110.841 66.2995 110.806 66.2647C110.841 66.2993 110.876 66.3339 110.911 66.3684C94.0007 85.7436 86.5906 100.338 90.3803 104.747C90.3977 104.76 90.4157 104.773 90.4331 104.786C90.4427 104.791 90.452 104.797 90.4614 104.801C87.3646 100.589 95.6179 86.9705 113.271 68.8256C133.117 48.4273 158.668 28.6535 176.093 19.639C175.051 19.2279 173.92 19 172.735 19H164.456C148.042 29.5261 127.253 47.645 110.911 66.368Z" fill="#FFC700" fill-opacity="0.5"/>
<path d="M97.0342 55.7018C97.0758 55.7261 97.1174 55.7498 97.159 55.7742C84.0814 84.266 85.0083 96.7504 88.2249 102.216C84.6635 95.0897 88.6442 78.518 100.022 57.543C107.583 43.6042 117.127 30.0901 126.806 19H119.808C111.322 30.0205 103.299 42.9429 97.1595 55.7733C97.1178 55.749 97.0758 55.7259 97.0342 55.7018Z" fill="#FFC700" fill-opacity="0.5"/>
<path d="M102.006 58.8895C102.01 58.893 102.015 58.8963 102.02 58.8998C89.1416 80.6455 84.7192 97.4945 89.1789 103.573C89.4877 103.941 89.8057 104.263 90.1247 104.543C90.1792 104.588 90.2331 104.634 90.2889 104.678C89.952 104.33 89.6113 103.863 89.3265 103.241C84.3786 93.7212 98.23 70.7738 104.728 60.9134C104.767 60.9439 104.806 60.9743 104.845 61.005C104.806 60.9743 104.768 60.943 104.729 60.9128C116.362 43.9002 128.934 29.5751 140.4 19H132.199C121.476 30.2489 110.638 44.3476 102.02 58.8993C102.015 58.8963 102.01 58.8928 102.005 58.8895H102.006Z" fill="#FFC700" fill-opacity="0.5"/>
<path d="M91.9538 53.0397C91.9879 53.0558 92.0218 53.0721 92.0561 53.0882C82.8718 77.8101 82.0586 97.0264 88.7117 103.555C89.1957 103.98 89.6727 104.332 90.1293 104.624C90.1495 104.635 90.1697 104.645 90.1898 104.656C89.7334 104.308 89.3264 103.893 88.9668 103.416C79.6829 92.8864 91.132 63.7046 95.0571 54.5982C95.0837 54.6123 95.1103 54.6262 95.1369 54.6406C95.1103 54.6262 95.0841 54.6114 95.0575 54.5971C101.167 40.9874 108.071 28.9874 115.086 19H108.823C102.402 29.2943 96.538 41.0245 92.0568 53.0871C92.0229 53.0713 91.9883 53.056 91.9542 53.0399L91.9538 53.0397Z" fill="#FFC700" fill-opacity="0.5"/>
<path d="M87.8845 103.138C80.1897 95.9996 78.4116 75.841 84.4591 50.0858C84.4765 50.0912 84.4939 50.0971 84.5113 50.1028C84.4939 50.0971 84.4767 50.091 84.4594 50.0854C87.0146 39.2038 90.6681 28.5991 94.9712 19H89.6692C86.0688 28.3614 83.1346 38.6211 81.2263 49.1401C81.1814 49.1281 81.1359 49.1177 81.0909 49.1057C81.1359 49.1177 81.1812 49.1292 81.2263 49.141C76.8253 73.4017 79.0106 92.7951 85.9085 101.283C86.5278 101.962 87.1865 102.581 87.8845 103.138Z" fill="#FFC700" fill-opacity="0.5"/>
<path d="M86.7097 50.8577C86.7191 50.8612 86.7285 50.8649 86.738 50.8682C78.3064 83.729 82.7666 97.0299 87.5546 102.404C81.5513 94.8731 81.9727 76.0072 89.8608 52.1036C89.9052 52.1227 89.9496 52.1417 89.9938 52.1606C89.9496 52.1414 89.9056 52.1216 89.8612 52.1027C93.7123 40.4331 98.8436 29.0774 104.573 19H98.9627C94.0262 28.9893 89.7857 39.9749 86.738 50.8682C86.7285 50.8649 86.7189 50.8614 86.7095 50.8579L86.7097 50.8577Z" fill="#FFC700" fill-opacity="0.5"/>
<path d="M118.473 75.2094C118.491 75.2353 118.51 75.2607 118.528 75.2864C99.6245 90.1431 89.5795 101.192 90.7118 104.923C90.7723 104.952 90.833 104.98 90.8942 105.009C90.6219 101.521 101.275 91.5723 120.479 78.1275C120.5 78.1594 120.521 78.191 120.541 78.2229C120.521 78.191 120.5 78.1588 120.48 78.127C140.365 64.205 164.099 50.2592 182 41.621V34.3774C164.057 43.214 139.025 59.1782 118.529 75.2858C118.51 75.2601 118.491 75.2351 118.473 75.2092L118.473 75.2094Z" fill="#FFC700" fill-opacity="0.5"/>
<path d="M91.6883 106.775C91.6875 106.773 91.6859 106.772 91.6853 106.771L91.6613 106.713C74.3616 108.815 43.8502 105.737 16 98.9663V102.06C43.9772 107.297 74.4496 109.159 91.6883 106.775Z" fill="#FFC700" fill-opacity="0.5"/>
<path d="M131.707 108.595C131.71 108.62 131.713 108.645 131.716 108.67C110.07 110.463 96.1848 110.541 92.8944 109.186C92.7931 109.302 92.6955 109.421 92.5977 109.54C95.1798 111.708 109.42 112.851 132.085 112.299C132.089 112.355 132.093 112.412 132.098 112.468C132.093 112.412 132.09 112.355 132.086 112.299C148.378 111.902 166.114 110.7 182 109.051V102.881C166.022 105.211 148.124 107.31 131.717 108.669C131.714 108.644 131.71 108.619 131.707 108.594L131.707 108.595Z" fill="#FFC700" fill-opacity="0.5"/>
<path d="M130.655 102.481C130.661 102.51 130.667 102.538 130.674 102.566C111.359 106.12 98.4001 108.053 93.8485 108.185C93.6494 108.376 93.4567 108.573 93.2681 108.774C98.5194 109.879 118.848 107.647 131.343 106.102C131.35 106.149 131.357 106.196 131.365 106.243C131.357 106.196 131.351 106.149 131.343 106.102C149.6 103.766 167.043 101.082 182 98.4513V92.2339C165.768 95.7696 147.406 99.4875 130.674 102.566C130.668 102.538 130.661 102.51 130.655 102.482L130.655 102.481Z" fill="#FFC700" fill-opacity="0.5"/>
<path d="M132.239 114.926C132.233 114.765 132.226 114.605 132.218 114.444C132.226 114.605 132.23 114.765 132.236 114.926C108.946 114.516 94.5179 112.45 92.4476 109.722C92.3984 109.783 92.3508 109.845 92.3027 109.906C93.6878 113.369 108.291 116.758 132.29 118.575C132.289 118.704 132.287 118.832 132.285 118.961C132.287 118.832 132.291 118.704 132.293 118.575C148.52 119.802 166.166 120.093 182.001 119.577V113.471C166.153 114.639 148.483 115.211 132.239 114.926Z" fill="#FFC700" fill-opacity="0.5"/>
<path d="M129.09 96.5001C129.104 96.5482 129.119 96.5963 129.134 96.6443C114.882 100.75 104.243 103.81 98.0609 105.583C97.8665 105.656 97.6674 105.733 97.4665 105.814C97.459 105.817 97.4519 105.82 97.4442 105.822C97.2241 105.907 97.0144 105.989 96.8158 106.07C96.8106 106.073 96.8052 106.074 96.7999 106.077C96.7606 106.093 96.7222 106.109 96.6838 106.125C96.6132 106.155 96.5452 106.185 96.4774 106.216L96.2542 106.322C96.207 106.346 96.16 106.371 96.1133 106.395C96.0974 106.404 96.0817 106.412 96.066 106.42C95.5545 106.757 95.0696 107.122 94.6074 107.51C99.7186 106.727 112.104 104.153 130.09 100.071C130.093 100.085 130.097 100.099 130.101 100.113C130.097 100.099 130.094 100.085 130.091 100.071C147.004 96.2322 165.632 91.7946 182 87.7414V81.3994C165.415 86.1873 146.346 91.6867 129.135 96.6441C129.121 96.5958 129.104 96.5482 129.09 96.5001Z" fill="#FFC700" fill-opacity="0.5"/>
<path d="M127.093 90.8498C127.104 90.8765 127.114 90.9035 127.125 90.9302C108.88 98.1779 96.9043 103.395 93.0376 105.65C93.5221 105.752 94.0145 105.834 94.5149 105.896C99.521 103.983 111.29 99.9108 128.351 94.2322C128.365 94.2718 128.378 94.3118 128.392 94.3516C128.378 94.3118 128.366 94.2715 128.352 94.2317C145.805 88.4222 165.245 82.1132 182 76.7928V70.2627C164.994 76.3272 144.958 83.8465 127.126 90.93C127.115 90.9033 127.104 90.8767 127.093 90.85L127.093 90.8498Z" fill="#FFC700" fill-opacity="0.5"/>
<path d="M121.719 80.0965C121.745 80.1394 121.771 80.182 121.797 80.2246C102.46 92.6463 91.4235 101.797 91.0684 105.091C91.1256 105.117 91.1827 105.142 91.2407 105.167C91.2922 105.184 91.3441 105.2 91.3956 105.217C92.6933 102.204 104.176 94.1873 123.522 83.2344C123.526 83.2429 123.531 83.2508 123.535 83.2592C123.531 83.2508 123.526 83.2425 123.522 83.2344C142.467 72.5086 164.393 61.5486 182 53.7797V46.7456C164.197 55.08 141.275 67.7129 121.798 80.2244C121.772 80.1815 121.745 80.1393 121.719 80.0967L121.719 80.0965Z" fill="#FFC700" fill-opacity="0.5"/>
<path d="M91.7207 105.317C91.9617 105.388 92.2046 105.454 92.4496 105.515C96.6139 102.05 114.833 93.6621 126.154 88.6121C126.174 88.6571 126.193 88.7028 126.213 88.7476C126.193 88.7028 126.174 88.6569 126.154 88.6117C146.396 79.6692 166.034 71.6272 182 65.512V58.7261C164.56 66.0249 143.261 75.8881 124.672 85.4479C105.477 95.3187 93.7497 102.511 91.7209 105.317L91.7207 105.317Z" fill="#FFC700" fill-opacity="0.5"/>
<path d="M75.4268 47.9115C75.4674 47.9182 75.5079 47.9249 75.5487 47.9317C73.1029 80.8026 79.8111 97.6344 88.1758 103.545C87.3718 102.91 86.6161 102.153 85.9089 101.283C76.8597 91.3507 76.0785 68.7784 78.8754 48.572C78.9011 48.5777 78.9269 48.5831 78.9526 48.589C78.9269 48.5831 78.9013 48.5766 78.8754 48.5709C80.6277 37.6868 83.0955 27.7812 86.0406 19.0005H80.9906C78.3855 28.2703 76.5156 38.174 75.5487 47.9304C75.5084 47.9239 75.4674 47.9182 75.4268 47.9115Z" fill="#FFC700" fill-opacity="0.5"/>
<path d="M23.7351 75.1188C24.7425 76.2058 25.1255 77.6562 24.9071 79.023C48.3844 95.3796 75.0667 106.222 91.4566 106.253C91.4469 106.234 91.4368 106.215 91.4265 106.194C74.0114 105.879 45.338 92.4082 21.6187 72.835L23.7354 75.1185L23.7351 75.1188Z" fill="#FFC700" fill-opacity="0.5"/>
<path d="M91.5343 106.355C91.5147 106.336 91.4978 106.317 91.483 106.296C75.0632 106.457 48.0954 96.3606 24.1486 80.9282C23.9723 81.1834 23.7682 81.4246 23.5356 81.6462L22.1201 82.9952C46.947 97.4797 74.8425 106.796 91.5345 106.355L91.5343 106.355Z" fill="#FFC700" fill-opacity="0.5"/>
<path d="M19.4419 70.4865L19.4423 70.487C19.6174 70.2534 19.7919 70.0193 19.9702 69.7886C19.7919 70.0193 19.6172 70.2532 19.4419 70.4865Z" fill="#FFC700" fill-opacity="0.5"/>
<path d="M20.2044 69.4891C20.3411 69.3144 20.4791 69.1413 20.6173 68.9686C44.075 90.4959 73.5246 105.62 91.4044 106.151C91.4012 106.145 91.3976 106.139 91.3946 106.133C91.3875 106.12 91.3802 106.106 91.3729 106.093C73.6878 105.279 45.1225 89.18 22.6962 66.5021C22.7046 66.4932 22.7125 66.4834 22.7207 66.474C22.7125 66.4834 22.7041 66.4925 22.6958 66.5016C20.3091 64.0882 18.0759 61.6846 16 59.3062V64.5648C17.4739 66.0262 19.0112 67.4943 20.6147 68.966C20.4765 69.1389 20.3409 69.3144 20.2044 69.4891Z" fill="#FFC700" fill-opacity="0.5"/>
<path d="M23.8969 65.1977C24.0184 65.0693 24.1409 64.9428 24.2634 64.8153C45.9154 88.2754 73.8149 105.038 91.3502 106.051L91.3439 106.039C91.3358 106.025 91.3308 106.009 91.3242 105.994C74.0099 104.712 47.0749 87.0647 26.5488 62.5641C26.5749 62.54 26.6 62.5147 26.6262 62.4906C26.6 62.5147 26.5736 62.5382 26.5475 62.5626C22.5162 57.7507 18.9943 52.985 16 48.3647V55.0437C18.6136 58.4076 21.4034 61.6928 24.2606 64.8127C24.1383 64.9399 24.0184 65.0693 23.8969 65.1977Z" fill="#FFC700" fill-opacity="0.5"/>
<path d="M18.3154 86.6217C44.6746 99.4573 74.3719 107.403 91.6199 106.457C91.6235 106.447 91.625 106.438 91.6293 106.428C91.6137 106.418 91.5987 106.408 91.5849 106.398C74.6723 107.051 46.039 98.2917 20.5634 84.4795L18.3154 86.6217Z" fill="#FFC700" fill-opacity="0.5"/>
<path d="M91.6426 106.669L91.6169 106.607C74.1691 108.232 43.5431 103.019 16 93.5586V96.7283C43.736 104.611 74.288 108.571 91.6426 106.669Z" fill="#FFC700" fill-opacity="0.5"/>
<path d="M91.5986 106.564L91.5907 106.545C91.5935 106.531 91.6008 106.516 91.605 106.501C74.0923 107.652 43.6111 100.318 16.6422 88.2158L16 88.8279V91.2415C43.3792 101.856 74.0715 107.99 91.5986 106.564Z" fill="#FFC700" fill-opacity="0.5"/>
<path d="M56.9524 47.7992C57.3873 47.733 57.8236 47.6713 58.2619 47.6145C63.4858 78.4108 77.1337 101.611 90.9291 105.378L90.9287 105.378C90.9156 105.36 90.9025 105.343 90.8894 105.326C77.5264 101.393 65.2663 78.1196 61.6156 47.2819C61.6682 47.2782 61.7207 47.2748 61.7733 47.2715C61.721 47.2748 61.668 47.2772 61.6154 47.2809C60.4533 37.4636 60.2821 27.8735 60.961 19H56.2362C55.9429 27.9632 56.5752 37.6717 58.2617 47.6143C57.8236 47.6708 57.3873 47.733 56.9524 47.7992Z" fill="#FFC700" fill-opacity="0.5"/>
<path d="M132.217 121.156C132.221 121.073 132.223 120.99 132.227 120.907C132.223 120.99 132.219 121.073 132.215 121.156C107.812 118.303 93.1438 113.953 92.2328 109.999C92.2283 110.005 92.2237 110.011 92.2192 110.017C93.5313 116.438 114.471 121.541 131.955 124.709C131.944 124.827 131.932 124.946 131.919 125.064C131.932 124.946 131.946 124.828 131.958 124.709C149.895 127.681 167.123 129.314 182 129.842V123.891C166.147 123.954 148.468 123.056 132.217 121.156Z" fill="#FFC700" fill-opacity="0.5"/>
<path d="M52.6131 48.6309C52.6281 48.6274 52.6435 48.6244 52.6585 48.6211C60.5344 79.1264 76.513 102.022 91.0021 105.473C90.9875 105.454 90.9727 105.437 90.9588 105.418C76.8673 101.778 62.2392 78.6788 55.9004 47.9727C56.1182 47.9353 56.336 47.8984 56.5549 47.8633C56.3362 47.8981 56.1172 47.9312 55.8994 47.9684C53.8198 37.8929 52.8525 28.0571 52.8808 19H48.2168C48.5474 28.2279 49.9932 38.2983 52.6581 48.62C52.6431 48.6233 52.6281 48.6274 52.6131 48.6309Z" fill="#FFC700" fill-opacity="0.5"/>
<path d="M47.2647 50.1543C57.7164 80.0912 75.9426 102.459 91.0653 105.568C91.0546 105.549 91.044 105.531 91.0342 105.513C76.273 102.206 59.3433 79.5042 50.3804 49.2009C50.5495 49.1546 50.7183 49.1074 50.888 49.0622C50.7185 49.1072 50.5482 49.15 50.3791 49.1966C47.2616 38.6559 45.4576 28.3753 44.8769 18.9995H40.2095C41.1295 28.615 43.4559 39.2442 47.2636 50.1514C47.2269 50.1638 47.2277 50.166 47.2644 50.1538L47.2647 50.1543Z" fill="#FFC700" fill-opacity="0.5"/>
<path d="M27.9351 61.314C28.0424 61.2202 28.1509 61.128 28.2591 61.0351C47.9465 86.2383 74.1614 104.484 91.3072 105.953C91.3025 105.94 91.2984 105.926 91.2948 105.912C91.2907 105.907 91.2862 105.902 91.2819 105.897C74.3828 104.172 49.2103 85.1384 30.7375 59.0136C30.7845 58.9773 30.8307 58.9401 30.8776 58.9042C30.8307 58.9403 30.7826 58.9751 30.7358 59.0112C24.195 49.7608 19.252 40.6928 16 32.4263V42.6427C19.2528 48.5521 23.3504 54.751 28.2563 61.0316C28.1481 61.1245 28.0426 61.2202 27.9351 61.314Z" fill="#FFC700" fill-opacity="0.5"/>
<path d="M63.9867 47.1625C64.0092 47.1617 64.0322 47.1614 64.0547 47.1606C66.5679 77.9684 77.8215 101.245 90.8616 105.288L90.8586 105.285L90.8539 105.278C90.835 105.254 90.8194 105.228 90.8018 105.203C89.1084 104.614 87.4788 103.664 85.9279 102.385C73.5519 93.2248 68.0957 68.4489 67.2653 47.1534C67.296 47.1543 67.3262 47.1556 67.3563 47.1562C67.3258 47.1554 67.2957 47.1536 67.2653 47.153C67.1039 36.8297 67.7326 27.415 68.976 19H64.3901C63.4204 27.8407 63.2578 37.3879 64.0549 47.1599C64.0322 47.1606 64.0097 47.1619 63.9869 47.1628L63.9867 47.1625Z" fill="#FFC700" fill-opacity="0.5"/>
<path d="M41.9336 52.2635C41.9905 52.2376 42.0478 52.2132 42.1049 52.1878C55.0387 81.294 75.4194 102.92 91.1212 105.661L91.0944 105.618C91.0916 105.614 91.0901 105.61 91.0875 105.606C75.7174 102.647 56.5819 80.5648 45.082 50.9454C45.2129 50.8949 45.3433 50.8436 45.4746 50.7942C45.3433 50.8436 45.2111 50.8912 45.0803 50.9415C40.7267 39.7276 38.0026 28.8069 36.8486 19H32.1226C33.5853 29.0955 36.9038 40.4825 42.1036 52.1847C42.0467 52.2106 41.9905 52.2376 41.9336 52.2635Z" fill="#FFC700" fill-opacity="0.5"/>
<path d="M32.3021 57.8489C32.394 57.783 32.4873 57.7186 32.5798 57.6532C50.1473 84.3839 74.5364 103.941 91.2484 105.856C91.2345 105.837 91.2214 105.819 91.2094 105.8C74.7714 103.633 51.5052 83.3936 35.2378 55.8764C35.3089 55.8318 35.379 55.7857 35.4501 55.7415C35.379 55.7859 35.3069 55.8285 35.2361 55.8731C27.7192 43.1578 22.8309 30.8033 20.6754 20.2354C19.0245 21.1924 17.6921 22.6479 16.8784 24.4014C19.8058 35.1216 25.5873 46.94 32.5772 57.6497C32.4847 57.7151 32.394 57.783 32.3021 57.8489Z" fill="#FFC700" fill-opacity="0.5"/>
<path d="M36.9757 54.8246C37.051 54.7809 37.1274 54.7387 37.2029 54.6956C52.5129 82.7292 74.9513 103.417 91.1822 105.759L91.1792 105.754C91.1783 105.752 91.1775 105.751 91.1766 105.749C91.1738 105.745 91.1702 105.74 91.1674 105.735L91.1466 105.702C75.218 103.124 53.9662 81.8665 40.0264 53.1792C40.1253 53.1296 40.2234 53.0787 40.3225 53.0295C40.2234 53.0787 40.1232 53.1256 40.0245 53.1752C34.1456 41.0763 30.3748 29.3134 28.7114 19H25.2659C24.8093 19 24.3609 19.035 23.9219 19.0996C25.8302 29.6975 30.2776 42.014 37.201 54.6921C37.1255 54.7354 37.051 54.7809 36.9757 54.8246Z" fill="#FFC700" fill-opacity="0.5"/>
<path d="M92.1841 109.005L92.1798 108.936C80.0439 118.958 71.4569 146.02 71.5243 175.941L74.68 174.777C73.3293 145.39 80.5816 118.952 92.1841 109.005V109.005Z" fill="#FFC700" fill-opacity="0.5"/>
<path d="M90.2393 104.682C90.2773 104.703 90.3151 104.724 90.3535 104.744C90.3434 104.734 90.3331 104.723 90.3228 104.713C90.2567 104.658 90.1908 104.602 90.1247 104.543C89.9293 104.381 89.7413 104.212 89.5596 104.037C89.7705 104.272 89.9958 104.488 90.2393 104.682Z" fill="#FFC700" fill-opacity="0.5"/>
<path d="M105.712 61.6971C105.7 61.6873 105.688 61.6771 105.676 61.6673C105.644 61.6414 105.612 61.6164 105.58 61.5903C105.624 61.626 105.668 61.6612 105.712 61.6971Z" fill="#FFC700" fill-opacity="0.5"/>
<path d="M19.2017 70.8052C20.0009 71.4889 20.8071 72.1653 21.6188 72.835L19.4424 70.4868C19.3626 70.5934 19.2808 70.698 19.2019 70.8052H19.2017Z" fill="#FFC700" fill-opacity="0.5"/>
<path d="M91.4158 106.14C91.4193 106.144 91.4227 106.148 91.4263 106.152C91.4899 106.154 91.5544 106.157 91.6177 106.159C91.5823 106.14 91.5487 106.12 91.5167 106.1C91.4811 106.098 91.445 106.096 91.4092 106.095C91.4109 106.11 91.4124 106.126 91.4156 106.14H91.4158Z" fill="#FFC700" fill-opacity="0.5"/>
<path d="M91.415 105.942C91.4249 105.949 91.4346 105.957 91.4449 105.964C91.5273 105.97 91.6103 105.978 91.6923 105.984C91.6496 105.964 91.6077 105.944 91.5676 105.923C91.5191 105.919 91.4708 105.914 91.4221 105.91C91.4198 105.92 91.4168 105.932 91.415 105.942Z" fill="#FFC700" fill-opacity="0.5"/>
<path d="M91.4055 106.055C91.4221 106.055 91.439 106.056 91.4558 106.057C91.4394 106.045 91.4228 106.034 91.4072 106.021C91.4068 106.032 91.4051 106.044 91.4053 106.055H91.4055Z" fill="#FFC700" fill-opacity="0.5"/>
<path d="M91.4302 105.874C91.4496 105.876 91.4688 105.878 91.4884 105.88C91.4705 105.87 91.4532 105.859 91.4359 105.848C91.4332 105.857 91.4325 105.865 91.4302 105.874Z" fill="#FFC700" fill-opacity="0.5"/>
<path d="M91.4824 105.721C91.4865 105.721 91.4905 105.722 91.4947 105.723C91.4913 105.721 91.4879 105.719 91.4844 105.717C91.4838 105.718 91.483 105.719 91.4824 105.721Z" fill="#FFC700" fill-opacity="0.5"/>
<path d="M92.9391 108.183C92.9243 108.182 92.9112 108.181 92.8964 108.181C92.8387 108.22 92.7808 108.26 92.7229 108.3C92.6853 108.345 92.6497 108.39 92.6162 108.434C92.7055 108.37 92.7949 108.307 92.8844 108.244C92.9024 108.223 92.9207 108.203 92.9391 108.183V108.183Z" fill="#FFC700" fill-opacity="0.5"/>
<path d="M91.6994 106.295C91.667 106.296 91.634 106.295 91.6016 106.296C91.6254 106.31 91.6511 106.323 91.6773 106.337C91.6852 106.323 91.6908 106.31 91.6994 106.295Z" fill="#FFC700" fill-opacity="0.5"/>
<path d="M92.7218 106.61C92.6349 106.612 92.5527 106.612 92.4746 106.61C92.2798 106.636 92.0806 106.66 91.8828 106.685C91.9392 106.7 92.0008 106.712 92.0673 106.721C92.269 106.692 92.4707 106.663 92.6686 106.633C92.6866 106.625 92.7029 106.618 92.7216 106.61L92.7218 106.61Z" fill="#FFC700" fill-opacity="0.5"/>
<path d="M91.7514 106.221C91.7353 106.214 91.7194 106.207 91.7035 106.2C91.6256 106.2 91.5458 106.196 91.4673 106.195C91.4894 106.216 91.5134 106.235 91.5396 106.254C91.6016 106.254 91.6653 106.256 91.7273 106.255C91.7349 106.244 91.743 106.232 91.7514 106.221V106.221Z" fill="#FFC700" fill-opacity="0.5"/>
<path d="M92.53 106.693C92.4362 106.708 92.3393 106.722 92.2446 106.737C92.3004 106.74 92.3581 106.742 92.4193 106.742C92.4551 106.726 92.4914 106.71 92.53 106.693Z" fill="#FFC700" fill-opacity="0.5"/>
<path d="M92.2566 106.598C92.1729 106.59 92.0956 106.58 92.0244 106.566C91.927 106.576 91.8306 106.587 91.7326 106.596C91.7259 106.605 91.7195 106.615 91.7144 106.623C91.7354 106.634 91.7583 106.644 91.7822 106.653C91.9416 106.635 92.0995 106.616 92.2566 106.597V106.598Z" fill="#FFC700" fill-opacity="0.5"/>
<path d="M92.8303 105.772C92.8346 105.773 92.8391 105.774 92.8432 105.775C92.8831 105.781 92.923 105.787 92.9627 105.792C92.9213 105.784 92.8801 105.776 92.8389 105.767C92.8359 105.769 92.8333 105.77 92.8301 105.772H92.8303Z" fill="#FFC700" fill-opacity="0.5"/>
<path d="M91.5322 105.618C91.5258 105.63 91.5207 105.642 91.5146 105.654C91.5707 105.664 91.6264 105.673 91.6822 105.683C91.6331 105.662 91.5831 105.641 91.5357 105.619C91.5344 105.619 91.5333 105.618 91.5322 105.618Z" fill="#FFC700" fill-opacity="0.5"/>
<path d="M92.4556 106.006C92.491 106.014 92.5255 106.023 92.562 106.031C92.7075 106.037 92.8532 106.042 92.9974 106.045C92.9139 106.033 92.8308 106.02 92.7504 106.005C92.6609 106.001 92.5704 105.995 92.4805 105.99C92.4717 105.995 92.4639 106 92.4556 106.006Z" fill="#FFC700" fill-opacity="0.5"/>
<path d="M92.6885 105.858C92.7194 105.866 92.7498 105.874 92.7805 105.881C92.8863 105.891 92.9921 105.9 93.0974 105.908C93.0123 105.894 92.9277 105.878 92.8445 105.861C92.7979 105.857 92.7516 105.853 92.7052 105.848C92.6998 105.852 92.6938 105.855 92.6885 105.858Z" fill="#FFC700" fill-opacity="0.5"/>
<path d="M92.5176 105.966C92.5387 105.967 92.56 105.968 92.5811 105.969C92.5639 105.966 92.5477 105.961 92.5306 105.958C92.5263 105.96 92.5218 105.963 92.5176 105.966Z" fill="#FFC700" fill-opacity="0.5"/>
<path d="M92.5947 105.917C92.7147 105.927 92.8344 105.935 92.9537 105.943C92.89 105.93 92.8269 105.915 92.7642 105.9C92.722 105.897 92.6799 105.894 92.6379 105.89C92.6228 105.899 92.6093 105.908 92.5947 105.917Z" fill="#FFC700" fill-opacity="0.5"/>
<path d="M92.7551 105.818C92.8098 105.83 92.8645 105.841 92.9199 105.852C93.089 105.869 93.2576 105.884 93.4258 105.896C93.3666 105.886 93.308 105.875 93.2501 105.864C93.0881 105.849 92.9257 105.832 92.763 105.813C92.7605 105.815 92.7577 105.816 92.7549 105.818H92.7551Z" fill="#FFC700" fill-opacity="0.5"/>
<path d="M92.7847 105.8C92.8967 105.814 93.0085 105.826 93.1203 105.838C93.064 105.826 93.0076 105.815 92.9522 105.802C92.9053 105.796 92.8587 105.79 92.8117 105.783C92.8027 105.789 92.7939 105.794 92.7849 105.8L92.7847 105.8Z" fill="#FFC700" fill-opacity="0.5"/>
<path d="M91.7891 105.56C91.8363 105.58 91.8835 105.599 91.9305 105.617C91.9446 105.62 91.9584 105.623 91.9723 105.626C91.9142 105.606 91.8573 105.584 91.8 105.563C91.7964 105.562 91.7925 105.561 91.7891 105.56Z" fill="#FFC700" fill-opacity="0.5"/>
<path d="M92.3863 106.052C92.3664 106.065 92.3455 106.079 92.3267 106.092C92.4279 106.094 92.5301 106.098 92.6307 106.099C92.5601 106.086 92.4957 106.069 92.4284 106.053C92.4142 106.053 92.4005 106.052 92.3863 106.052Z" fill="#FFC700" fill-opacity="0.5"/>
<path d="M91.5757 105.54C91.6785 105.564 91.7815 105.586 91.8842 105.608C91.8411 105.59 91.798 105.571 91.7551 105.552C91.7003 105.54 91.6458 105.527 91.5913 105.514C91.586 105.523 91.5808 105.532 91.5757 105.54Z" fill="#FFC700" fill-opacity="0.5"/>
<path d="M91.6021 105.496C91.6198 105.5 91.6377 105.504 91.6552 105.509C91.6389 105.502 91.6232 105.494 91.607 105.488C91.605 105.491 91.604 105.493 91.6021 105.496V105.496Z" fill="#FFC700" fill-opacity="0.5"/>
<path d="M91.6225 105.461C91.621 105.464 91.6195 105.466 91.6182 105.469C91.6909 105.498 91.7643 105.527 91.8387 105.554C91.9889 105.589 92.1396 105.622 92.2902 105.652C92.2949 105.648 92.3003 105.643 92.305 105.639C92.2518 105.625 92.1992 105.609 92.1469 105.594C91.9713 105.553 91.7965 105.509 91.6225 105.461V105.461Z" fill="#FFC700" fill-opacity="0.5"/>
<path d="M91.5508 105.583C91.5679 105.591 91.5864 105.598 91.6038 105.605C91.7752 105.64 91.9462 105.671 92.1172 105.7C92.07 105.683 92.0228 105.665 91.9761 105.646C91.8385 105.619 91.701 105.591 91.5637 105.561C91.5598 105.568 91.5546 105.576 91.5508 105.583V105.583Z" fill="#FFC700" fill-opacity="0.5"/>
<path d="M96.188 106.346C96.1905 106.345 96.193 106.344 96.1955 106.342C96.1962 106.342 96.1969 106.342 96.1978 106.341C96.1946 106.343 96.1912 106.344 96.1882 106.346H96.188Z" fill="#FFC700" fill-opacity="0.5"/>
<path d="M92.3741 109.263C92.3909 109.226 92.4085 109.19 92.4265 109.153C92.3941 109.186 92.3625 109.22 92.3306 109.253C92.3381 109.264 92.3454 109.275 92.3533 109.286C92.3602 109.278 92.3673 109.271 92.3739 109.264L92.3741 109.263Z" fill="#FFC700" fill-opacity="0.5"/>
<path d="M92.2443 108.399C92.2529 108.404 92.2621 108.41 92.271 108.416C92.2798 108.399 92.2876 108.382 92.2977 108.364C92.2798 108.376 92.2623 108.387 92.2443 108.399Z" fill="#FFC700" fill-opacity="0.5"/>
<path d="M92.2218 108.777C92.2139 108.806 92.207 108.836 92.2017 108.865C92.2281 108.844 92.2545 108.823 92.2808 108.802C92.268 108.787 92.2566 108.773 92.2454 108.758C92.2375 108.764 92.2298 108.771 92.2218 108.777Z" fill="#FFC700" fill-opacity="0.5"/>
<path d="M122.232 153.269C122.268 153.213 122.304 153.158 122.34 153.102C122.398 153.01 122.454 152.916 122.512 152.824C122.419 152.973 122.326 153.122 122.232 153.269H122.232Z" fill="#FFC700" fill-opacity="0.5"/>
<path d="M94.4848 105.907C94.3097 105.902 94.1348 105.894 93.96 105.882C94.0039 105.887 94.0477 105.892 94.0917 105.897C94.2187 105.904 94.3458 105.909 94.4728 105.912C94.4766 105.91 94.4807 105.909 94.4848 105.907V105.907Z" fill="#FFC700" fill-opacity="0.5"/>
<path d="M94.4901 105.905C94.523 105.906 94.5552 105.907 94.5871 105.908L94.5258 105.905C94.2623 105.896 94.0005 105.878 93.7402 105.852C93.7941 105.86 93.8479 105.867 93.9016 105.874C94.0973 105.889 94.293 105.899 94.4893 105.905H94.4899L94.4901 105.905Z" fill="#FFC700" fill-opacity="0.5"/>
<path d="M92.2359 108.169C92.2157 108.202 92.1983 108.235 92.1846 108.267C92.2642 108.22 92.3427 108.177 92.4221 108.131C92.3925 108.126 92.3629 108.12 92.3367 108.114C92.303 108.133 92.2698 108.151 92.2359 108.17V108.169Z" fill="#FFC700" fill-opacity="0.5"/>
<path d="M96.2278 106.328C96.2458 106.319 96.2632 106.309 96.2814 106.3C96.2529 106.314 96.2237 106.328 96.1954 106.342C96.1464 106.368 96.0971 106.392 96.0488 106.418C96.0376 106.424 96.0267 106.43 96.0155 106.436C95.9793 106.455 95.9445 106.476 95.9087 106.496C95.9926 106.451 96.0765 106.405 96.1612 106.362C96.1833 106.35 96.2057 106.34 96.228 106.328L96.2278 106.328Z" fill="#FFC700" fill-opacity="0.5"/>
<path d="M92.5436 107.686C92.4872 107.711 92.4299 107.738 92.373 107.763C92.396 107.763 92.422 107.762 92.4466 107.761C92.4771 107.736 92.5097 107.711 92.5434 107.686H92.5436Z" fill="#FFC700" fill-opacity="0.5"/>
<path d="M96.253 106.315C96.2446 106.319 96.2361 106.323 96.2277 106.327C96.2256 106.329 96.2235 106.33 96.2212 106.331C96.2317 106.325 96.2421 106.32 96.2528 106.315H96.253Z" fill="#FFC700" fill-opacity="0.5"/>
<path d="M92.7076 108.168C92.6797 108.165 92.6512 108.163 92.625 108.16C92.5907 108.181 92.5566 108.203 92.5222 108.224C92.489 108.265 92.4583 108.305 92.4302 108.346C92.5227 108.285 92.6151 108.226 92.7078 108.168L92.7076 108.168Z" fill="#FFC700" fill-opacity="0.5"/>
<path d="M94.4634 105.915C94.4091 105.914 94.3551 105.912 94.3008 105.91C94.3523 105.913 94.4036 105.916 94.4553 105.918C94.4581 105.917 94.4606 105.917 94.4636 105.915L94.4634 105.915Z" fill="#FFC700" fill-opacity="0.5"/>
<path d="M94.3643 105.954C94.2686 105.95 94.1736 105.945 94.0794 105.938C93.9538 105.935 93.8281 105.93 93.7021 105.924C93.7918 105.934 93.8811 105.943 93.9701 105.951C94.1002 105.954 94.2298 105.956 94.3587 105.956C94.3607 105.955 94.3624 105.954 94.3643 105.954Z" fill="#FFC700" fill-opacity="0.5"/>
<path d="M93.9318 106.121C93.846 106.119 93.7591 106.118 93.6758 106.113C93.4997 106.119 93.3196 106.12 93.1411 106.122C93.2415 106.133 93.3456 106.141 93.4503 106.147C93.6082 106.142 93.764 106.134 93.92 106.125C93.9236 106.124 93.9282 106.122 93.932 106.121H93.9318Z" fill="#FFC700" fill-opacity="0.5"/>
<path d="M93.6134 106.246C93.6456 106.233 93.6801 106.219 93.7132 106.207C93.5445 106.219 93.3729 106.228 93.2017 106.239C93.3134 106.245 93.4285 106.25 93.5473 106.252C93.5696 106.25 93.5913 106.248 93.6136 106.246L93.6134 106.246Z" fill="#FFC700" fill-opacity="0.5"/>
<path d="M93.8633 106.147C93.8036 106.151 93.7457 106.156 93.686 106.159C93.732 106.161 93.7796 106.161 93.8266 106.162C93.839 106.157 93.8506 106.152 93.8633 106.147Z" fill="#FFC700" fill-opacity="0.5"/>
<path d="M93.346 106.353C93.2992 106.357 93.2514 106.362 93.2046 106.366C93.2398 106.367 93.2754 106.367 93.3114 106.366C93.323 106.362 93.334 106.357 93.346 106.353V106.353Z" fill="#FFC700" fill-opacity="0.5"/>
<path d="M93.4866 106.296C93.4257 106.296 93.3664 106.294 93.3076 106.293C93.1019 106.31 92.8959 106.326 92.686 106.34C92.7759 106.349 92.8693 106.355 92.9658 106.36C93.121 106.346 93.2772 106.333 93.4302 106.319C93.4486 106.311 93.4679 106.304 93.4866 106.296V106.296Z" fill="#FFC700" fill-opacity="0.5"/>
<path d="M94.3345 105.965C94.286 105.965 94.2379 105.965 94.1895 105.964C94.2337 105.967 94.2781 105.968 94.3223 105.969C94.3261 105.968 94.3304 105.966 94.3345 105.965Z" fill="#FFC700" fill-opacity="0.5"/>
<path d="M94.4317 105.928C94.43 105.928 94.4281 105.927 94.4261 105.927C94.2367 105.924 94.047 105.917 93.8564 105.907C93.9442 105.916 94.0322 105.924 94.1212 105.93C94.2174 105.933 94.3133 105.935 94.4092 105.936C94.4169 105.933 94.4242 105.931 94.4317 105.928V105.928Z" fill="#FFC700" fill-opacity="0.5"/>
<path d="M92.966 106.508C93.0156 106.487 93.0652 106.467 93.1177 106.445C92.9158 106.47 92.7148 106.495 92.5088 106.518C92.609 106.524 92.7152 106.527 92.8276 106.526C92.874 106.521 92.9197 106.514 92.9658 106.508L92.966 106.508Z" fill="#FFC700" fill-opacity="0.5"/>
<path d="M94.2663 105.991C94.1809 105.992 94.0949 105.992 94.0093 105.992C94.0854 105.996 94.1642 105.997 94.2419 106C94.2498 105.997 94.2582 105.994 94.2663 105.991V105.991Z" fill="#FFC700" fill-opacity="0.5"/>
<path d="M94.1972 106.018C94.0339 106.021 93.8713 106.026 93.7061 106.026C93.7934 106.034 93.8814 106.039 93.9698 106.043C94.0281 106.042 94.0858 106.04 94.1442 106.038C94.162 106.031 94.1792 106.024 94.1972 106.018Z" fill="#FFC700" fill-opacity="0.5"/>
<path d="M94.0762 106.065C94.0324 106.064 93.9899 106.062 93.947 106.06C93.8026 106.064 93.6576 106.067 93.5112 106.069C93.6104 106.077 93.7108 106.084 93.8131 106.089C93.8895 106.087 93.9646 106.082 94.0404 106.079C94.0524 106.074 94.0644 106.07 94.0762 106.065V106.065Z" fill="#FFC700" fill-opacity="0.5"/>
<path d="M91.4565 105.791C91.4608 105.793 91.4653 105.795 91.4696 105.798C91.5561 105.809 91.6426 105.821 91.7288 105.831C91.6812 105.81 91.6331 105.79 91.5876 105.768C91.5488 105.763 91.5098 105.757 91.4709 105.751C91.4656 105.765 91.4613 105.778 91.4565 105.791Z" fill="#FFC700" fill-opacity="0.5"/>
<path d="M91.3122 105.443C91.2917 105.438 91.2712 105.432 91.251 105.427C91.27 105.438 91.2896 105.448 91.309 105.458C91.3103 105.453 91.3109 105.449 91.3122 105.444V105.443Z" fill="#FFC700" fill-opacity="0.5"/>
<path d="M91.335 105.375C91.2436 105.348 91.152 105.321 91.061 105.291C91.0615 105.299 91.0619 105.306 91.0623 105.314C91.0941 105.335 91.1243 105.357 91.1572 105.376C91.2112 105.392 91.2653 105.407 91.3194 105.421C91.3239 105.406 91.3299 105.391 91.335 105.375Z" fill="#FFC700" fill-opacity="0.5"/>
<path d="M91.2761 105.641C91.2552 105.637 91.2343 105.633 91.2134 105.629C91.233 105.644 91.2524 105.659 91.2729 105.674C91.2735 105.663 91.275 105.652 91.2761 105.641Z" fill="#FFC700" fill-opacity="0.5"/>
<path d="M91.2809 105.597C91.2575 105.582 91.2326 105.568 91.2101 105.552C91.1704 105.543 91.1307 105.535 91.0908 105.526C91.0908 105.527 91.0908 105.528 91.0915 105.529C91.1127 105.548 91.1339 105.567 91.1565 105.585C91.1975 105.594 91.2384 105.601 91.2796 105.609C91.2803 105.605 91.2803 105.601 91.2809 105.597V105.597Z" fill="#FFC700" fill-opacity="0.5"/>
<path d="M91.2746 105.808C91.2658 105.807 91.2574 105.806 91.249 105.805C91.2576 105.814 91.2675 105.821 91.2763 105.83C91.2754 105.823 91.2754 105.815 91.2746 105.808Z" fill="#FFC700" fill-opacity="0.5"/>
<path d="M91.2997 105.502C91.2517 105.491 91.2036 105.478 91.1558 105.466C91.1899 105.489 91.2259 105.511 91.2613 105.533C91.2712 105.535 91.2815 105.537 91.2914 105.539C91.2939 105.527 91.2969 105.514 91.2999 105.502H91.2997Z" fill="#FFC700" fill-opacity="0.5"/>
<path d="M92.8921 105.767C92.9833 105.785 93.0758 105.801 93.1682 105.817C93.3532 105.839 93.5384 105.858 93.7233 105.873C93.6375 105.863 93.5521 105.852 93.4671 105.841C93.2755 105.82 93.0837 105.795 92.8921 105.767Z" fill="#FFC700" fill-opacity="0.5"/>
<path d="M93.0183 106.426C92.9102 106.425 92.8076 106.421 92.7085 106.415C92.5023 106.433 92.292 106.449 92.0815 106.465C92.1521 106.479 92.2266 106.491 92.3064 106.5C92.5467 106.477 92.7832 106.452 93.0181 106.426H93.0183Z" fill="#FFC700" fill-opacity="0.5"/>
<path d="M91.7109 106.109C91.7414 106.123 91.7717 106.136 91.8038 106.148C91.8124 106.137 91.8236 106.126 91.8328 106.114C91.7925 106.113 91.7513 106.11 91.7109 106.109Z" fill="#FFC700" fill-opacity="0.5"/>
<path d="M94.1606 105.905C94.2091 105.91 94.2572 105.914 94.3057 105.918C94.3428 105.919 94.3799 105.921 94.4171 105.922C94.3364 105.918 94.2546 105.912 94.1718 105.905C94.1682 105.905 94.1643 105.905 94.1606 105.905Z" fill="#FFC700" fill-opacity="0.5"/>
<path d="M93.6465 105.886C93.8327 105.899 94.0183 105.908 94.2039 105.914C94.1237 105.909 94.0443 105.902 93.9649 105.895C93.7639 105.883 93.5628 105.868 93.3613 105.848C93.456 105.862 93.551 105.874 93.6465 105.886Z" fill="#FFC700" fill-opacity="0.5"/>
<path d="M91.9399 106.381C91.924 106.394 91.9099 106.407 91.8955 106.42C91.9131 106.425 91.9318 106.43 91.9502 106.435C92.1386 106.423 92.3274 106.412 92.5128 106.398C92.4261 106.389 92.3433 106.377 92.2646 106.364C92.1569 106.37 92.0487 106.375 91.9399 106.381Z" fill="#FFC700" fill-opacity="0.5"/>
<path d="M90.9417 105.382C90.9547 105.385 90.9677 105.389 90.9805 105.393C90.9773 105.384 90.9733 105.375 90.9703 105.366C90.9611 105.358 90.9526 105.35 90.9436 105.341C90.9291 105.337 90.9144 105.332 90.8999 105.328C90.9029 105.333 90.9059 105.338 90.9089 105.342C90.9199 105.356 90.9304 105.369 90.9417 105.381V105.382Z" fill="#FFC700" fill-opacity="0.5"/>
<path d="M90.8768 105.293C90.8854 105.295 90.8943 105.298 90.9031 105.301C90.8832 105.282 90.8649 105.262 90.8457 105.243C90.8551 105.26 90.8666 105.276 90.8768 105.293V105.293Z" fill="#FFC700" fill-opacity="0.5"/>
<path d="M90.9221 105.247C90.8948 105.238 90.8676 105.227 90.8403 105.217C90.8768 105.25 90.9135 105.283 90.9521 105.314C90.9463 105.296 90.9425 105.277 90.9375 105.258C90.9324 105.254 90.9272 105.251 90.9221 105.247V105.247Z" fill="#FFC700" fill-opacity="0.5"/>
<path d="M90.9819 105.423L91.0013 105.443C90.999 105.438 90.9971 105.432 90.9947 105.427C90.9905 105.425 90.9862 105.425 90.9819 105.424V105.423Z" fill="#FFC700" fill-opacity="0.5"/>
<path d="M91.1187 105.612C91.1246 105.629 91.1289 105.647 91.1359 105.663C91.1564 105.667 91.1771 105.671 91.1976 105.674C91.1747 105.654 91.1521 105.635 91.1306 105.614C91.1268 105.613 91.1227 105.612 91.1187 105.612V105.612Z" fill="#FFC700" fill-opacity="0.5"/>
<path d="M91.1531 105.508C91.1271 105.489 91.1023 105.469 91.0771 105.449C91.0795 105.463 91.0818 105.478 91.0848 105.492C91.1077 105.497 91.1305 105.503 91.1531 105.508Z" fill="#FFC700" fill-opacity="0.5"/>
<path d="M91.064 105.349L91.0664 105.349L91.064 105.348V105.349Z" fill="#FFC700" fill-opacity="0.5"/>
<path d="M91.0978 105.423C91.1463 105.436 91.1944 105.448 91.2429 105.46C91.2047 105.438 91.1648 105.416 91.1279 105.393C91.1071 105.387 91.0862 105.381 91.0654 105.375C91.0665 105.384 91.0676 105.392 91.0684 105.401C91.0783 105.408 91.088 105.416 91.0978 105.423Z" fill="#FFC700" fill-opacity="0.5"/>
<path d="M91.2731 105.772C91.2725 105.76 91.2714 105.747 91.2714 105.734C91.2645 105.729 91.2574 105.724 91.251 105.719C91.2197 105.714 91.1886 105.709 91.1572 105.704C91.1737 105.724 91.1918 105.744 91.21 105.763C91.2308 105.766 91.2523 105.769 91.2731 105.772Z" fill="#FFC700" fill-opacity="0.5"/>
<path d="M91.6773 105.75C91.7665 105.764 91.8556 105.776 91.9442 105.788C91.8899 105.768 91.8358 105.748 91.7833 105.727C91.6996 105.714 91.6161 105.7 91.5322 105.686C91.5786 105.709 91.629 105.729 91.6773 105.75Z" fill="#FFC700" fill-opacity="0.5"/>
<path d="M91.8038 106.509C91.7914 106.523 91.7781 106.536 91.7676 106.549C91.8103 106.545 91.8519 106.541 91.8942 106.537C91.8624 106.528 91.8328 106.519 91.8038 106.509Z" fill="#FFC700" fill-opacity="0.5"/>
<path d="M93.7594 106.05C93.6567 106.043 93.5565 106.034 93.4582 106.022C93.3226 106.021 93.187 106.019 93.0503 106.015C93.1295 106.027 93.2097 106.038 93.2915 106.047C93.4475 106.049 93.6049 106.052 93.7594 106.05V106.05Z" fill="#FFC700" fill-opacity="0.5"/>
<path d="M92.8985 105.99C93.0287 105.996 93.1564 105.996 93.2855 106C93.2216 105.991 93.1583 105.98 93.0959 105.969C92.9476 105.962 92.7987 105.954 92.6489 105.943C92.7302 105.961 92.8144 105.976 92.8983 105.99L92.8985 105.99Z" fill="#FFC700" fill-opacity="0.5"/>
<path d="M92.5696 106.167C92.7313 106.166 92.891 106.162 93.0508 106.159C92.9755 106.15 92.9056 106.138 92.8333 106.128C92.6723 106.128 92.5088 106.125 92.3462 106.123C92.4187 106.139 92.493 106.154 92.5696 106.167V106.167Z" fill="#FFC700" fill-opacity="0.5"/>
<path d="M93.5949 106.195C93.4861 106.191 93.3825 106.184 93.2789 106.176C93.1029 106.183 92.928 106.191 92.7495 106.194C92.8291 106.205 92.9107 106.215 92.9948 106.223C93.1956 106.214 93.3975 106.207 93.5949 106.195Z" fill="#FFC700" fill-opacity="0.5"/>
<path d="M93.1292 105.952C93.2648 105.959 93.4002 105.965 93.5349 105.969C93.4476 105.96 93.362 105.948 93.2764 105.935C93.1599 105.929 93.0431 105.922 92.9258 105.913C92.9934 105.927 93.0614 105.94 93.1292 105.952Z" fill="#FFC700" fill-opacity="0.5"/>
<path d="M92.958 105.803C93.026 105.817 93.0936 105.831 93.161 105.843C93.241 105.852 93.3215 105.858 93.4015 105.866C93.2987 105.851 93.1953 105.837 93.0945 105.819C93.049 105.813 93.0037 105.808 92.958 105.803Z" fill="#FFC700" fill-opacity="0.5"/>
<path d="M92.5 106.319C92.6937 106.309 92.8838 106.296 93.0746 106.283C92.9802 106.278 92.8881 106.27 92.7993 106.261C92.6225 106.269 92.4433 106.274 92.2642 106.28C92.3393 106.295 92.4187 106.307 92.5002 106.319H92.5Z" fill="#FFC700" fill-opacity="0.5"/>
<path d="M93.8943 105.923C93.7936 105.914 93.693 105.904 93.5939 105.892C93.4956 105.885 93.3973 105.877 93.2988 105.868C93.3776 105.881 93.4563 105.893 93.5346 105.904C93.6548 105.912 93.7747 105.918 93.894 105.923H93.8943Z" fill="#FFC700" fill-opacity="0.5"/>
<path d="M93.3624 105.925C93.495 105.933 93.6272 105.939 93.7587 105.944C93.693 105.936 93.628 105.927 93.5639 105.918C93.4032 105.909 93.2416 105.897 93.0796 105.884C93.1721 105.9 93.2675 105.912 93.3624 105.925Z" fill="#FFC700" fill-opacity="0.5"/>
<path d="M93.9166 105.961C93.7855 105.958 93.6539 105.954 93.522 105.948C93.6305 105.961 93.7423 105.969 93.8535 105.978C93.9451 105.98 94.0365 105.98 94.1277 105.98C94.0565 105.975 93.9859 105.968 93.9166 105.961Z" fill="#FFC700" fill-opacity="0.5"/>
<path d="M93.2829 105.978C93.3501 105.988 93.4177 105.997 93.4851 106.005C93.6511 106.008 93.8166 106.009 93.9807 106.008C93.9054 106.004 93.8322 105.996 93.7584 105.99C93.6005 105.988 93.4419 105.983 93.2827 105.978L93.2829 105.978Z" fill="#FFC700" fill-opacity="0.5"/>
<path d="M92.9749 106.101C93.1358 106.101 93.2959 106.099 93.4549 106.096C93.3499 106.088 93.2435 106.081 93.1427 106.068C93.0077 106.067 92.874 106.068 92.7378 106.065C92.8153 106.079 92.8944 106.09 92.9747 106.101L92.9749 106.101Z" fill="#FFC700" fill-opacity="0.5"/>
<path d="M91.9893 106.34C92.0317 106.338 92.0736 106.336 92.1154 106.334C92.0837 106.327 92.0536 106.319 92.0234 106.312C92.0114 106.321 92.0008 106.33 91.9893 106.34Z" fill="#FFC700" fill-opacity="0.5"/>
<path d="M92.1494 105.78C92.0941 105.773 92.0383 105.765 91.9829 105.757C92.0295 105.773 92.0771 105.788 92.1247 105.803C92.1329 105.796 92.1413 105.788 92.1494 105.78Z" fill="#FFC700" fill-opacity="0.5"/>
<path d="M92.1108 106.245C92.1149 106.246 92.1196 106.247 92.1237 106.248C92.2904 106.245 92.4584 106.244 92.623 106.239C92.5408 106.227 92.4617 106.213 92.3844 106.198C92.3143 106.199 92.2432 106.199 92.1726 106.199C92.1508 106.215 92.1314 106.23 92.1111 106.245H92.1108Z" fill="#FFC700" fill-opacity="0.5"/>
<path d="M91.9276 106.003C91.9399 105.989 91.9549 105.975 91.968 105.961C91.901 105.956 91.8326 105.947 91.7656 105.942C91.8165 105.963 91.869 105.983 91.9231 106.002C91.9246 106.002 91.9259 106.003 91.9276 106.003Z" fill="#FFC700" fill-opacity="0.5"/>
<path d="M92.2202 106.166H92.2327C92.2299 106.165 92.2269 106.164 92.2236 106.163C92.2226 106.164 92.2212 106.165 92.2202 106.166Z" fill="#FFC700" fill-opacity="0.5"/>
<path d="M91.8531 105.712C91.9595 105.729 92.0655 105.745 92.1713 105.76C92.1809 105.752 92.19 105.743 92.1996 105.734C92.0368 105.709 91.8735 105.681 91.71 105.651C91.758 105.671 91.8039 105.693 91.8531 105.712Z" fill="#FFC700" fill-opacity="0.5"/>
<path d="M92.0581 105.868C92.0686 105.857 92.0787 105.847 92.0899 105.836C92.0849 105.835 92.0798 105.833 92.0748 105.831C91.9755 105.82 91.8761 105.808 91.7764 105.794C91.8261 105.815 91.8768 105.834 91.9285 105.853C91.9716 105.858 92.0148 105.863 92.0581 105.868Z" fill="#FFC700" fill-opacity="0.5"/>
<path d="M92.8613 105.753C92.9933 105.774 93.1255 105.793 93.2576 105.809C93.1306 105.789 93.0042 105.767 92.8789 105.743C92.8733 105.746 92.8669 105.75 92.8613 105.753V105.753Z" fill="#FFC700" fill-opacity="0.5"/>
<path d="M91.6663 105.898C91.7742 105.909 91.8832 105.922 91.9903 105.931C91.9335 105.912 91.8757 105.893 91.8212 105.872C91.7309 105.862 91.6406 105.852 91.5498 105.842C91.5878 105.861 91.6268 105.88 91.6663 105.898Z" fill="#FFC700" fill-opacity="0.5"/>
<path d="M92.218 105.717C92.2216 105.714 92.2249 105.71 92.2283 105.707C92.1877 105.695 92.1457 105.685 92.1056 105.672C92.0847 105.668 92.0635 105.663 92.0425 105.659C92.0931 105.678 92.144 105.696 92.1942 105.713C92.2023 105.714 92.2101 105.716 92.218 105.717Z" fill="#FFC700" fill-opacity="0.5"/>
<path d="M92.2572 105.68C92.2636 105.675 92.2714 105.668 92.2778 105.663C92.1785 105.643 92.0791 105.624 91.98 105.603C92.0364 105.622 92.0918 105.643 92.1493 105.661C92.1853 105.668 92.2212 105.674 92.2572 105.68Z" fill="#FFC700" fill-opacity="0.5"/>
<path d="M91.622 106.066C91.7012 106.07 91.7825 106.076 91.8613 106.08C91.8669 106.073 91.8722 106.066 91.8782 106.06C91.8488 106.049 91.8205 106.038 91.7924 106.026C91.7001 106.021 91.6064 106.013 91.5137 106.007C91.5484 106.027 91.5847 106.048 91.622 106.066Z" fill="#FFC700" fill-opacity="0.5"/>
<path d="M93.5176 108.191H93.5067C93.4462 108.245 93.3837 108.295 93.3239 108.349C93.3084 108.364 93.2934 108.379 93.2777 108.393C93.2275 108.448 93.1803 108.504 93.1318 108.56C93.2494 108.446 93.3664 108.332 93.4874 108.223C93.4977 108.213 93.5073 108.202 93.5176 108.191Z" fill="#FFC700" fill-opacity="0.5"/>
<path d="M94.2388 107.538C94.2239 107.549 94.2083 107.56 94.1934 107.571C94.1961 107.571 94.1987 107.57 94.2015 107.57C94.214 107.559 94.2266 107.549 94.239 107.538L94.2388 107.538Z" fill="#FFC700" fill-opacity="0.5"/>
<path d="M94.3501 107.446C94.4029 107.403 94.4559 107.362 94.5089 107.321C94.4181 107.382 94.3272 107.443 94.2368 107.507C94.2076 107.53 94.1806 107.554 94.1519 107.577C94.1579 107.577 94.1639 107.576 94.1699 107.575C94.2302 107.531 94.29 107.489 94.3503 107.446H94.3501Z" fill="#FFC700" fill-opacity="0.5"/>
<path d="M94.2111 107.439C94.1283 107.493 94.0455 107.549 93.9629 107.604C93.9794 107.601 93.9946 107.6 94.0118 107.597C94.0775 107.543 94.144 107.491 94.2114 107.439H94.2111Z" fill="#FFC700" fill-opacity="0.5"/>
<path d="M94.057 107.489C93.9894 107.532 93.9216 107.575 93.854 107.619C93.8692 107.617 93.8849 107.615 93.9004 107.613C93.9518 107.571 94.0036 107.53 94.057 107.489Z" fill="#FFC700" fill-opacity="0.5"/>
<path d="M94.5028 107.172C94.3505 107.259 94.1982 107.35 94.0458 107.441C93.9664 107.5 93.8896 107.559 93.8149 107.619C93.9521 107.531 94.0898 107.446 94.2271 107.362C94.3164 107.298 94.4082 107.235 94.5028 107.172Z" fill="#FFC700" fill-opacity="0.5"/>
<path d="M94.1825 107.528C94.2668 107.461 94.3546 107.396 94.4428 107.331C94.3303 107.404 94.2183 107.479 94.1068 107.556C94.0924 107.567 94.0769 107.578 94.063 107.59C94.0756 107.588 94.0892 107.586 94.1023 107.584C94.1289 107.565 94.1559 107.547 94.1825 107.528V107.528Z" fill="#FFC700" fill-opacity="0.5"/>
<path d="M95.1322 106.96C95.0377 107.021 94.9468 107.086 94.8541 107.149C94.8281 107.167 94.8041 107.186 94.7783 107.204C94.9066 107.115 95.0339 107.025 95.1656 106.94C95.1549 106.947 95.1431 106.954 95.1324 106.961L95.1322 106.96Z" fill="#FFC700" fill-opacity="0.5"/>
<path d="M94.2662 107.545C94.2576 107.551 94.2486 107.558 94.2402 107.564C94.2413 107.564 94.2423 107.564 94.2432 107.563C94.2509 107.557 94.2585 107.551 94.2662 107.545Z" fill="#FFC700" fill-opacity="0.5"/>
<path d="M95.4663 106.759C95.3762 106.813 95.2859 106.865 95.1973 106.921C95.341 106.83 95.4884 106.743 95.6363 106.657C95.5792 106.69 95.523 106.725 95.4663 106.759V106.759Z" fill="#FFC700" fill-opacity="0.5"/>
<path d="M94.8492 107.152C94.8269 107.167 94.8048 107.182 94.7823 107.198C94.7486 107.222 94.7158 107.245 94.6836 107.268C94.6954 107.26 94.7076 107.252 94.7196 107.244L94.8492 107.152Z" fill="#FFC700" fill-opacity="0.5"/>
<path d="M94.6616 107.244C94.5721 107.304 94.4831 107.365 94.3947 107.427C94.3333 107.474 94.2711 107.52 94.2114 107.568C94.2151 107.568 94.2187 107.568 94.2224 107.567C94.2771 107.527 94.332 107.487 94.3872 107.447C94.4764 107.378 94.5689 107.311 94.6616 107.244Z" fill="#FFC700" fill-opacity="0.5"/>
<path d="M92.3941 108.983C92.3501 109.024 92.3063 109.065 92.2626 109.106C92.26 109.113 92.2585 109.121 92.2563 109.128C92.2617 109.139 92.2673 109.15 92.2733 109.161C92.2971 109.138 92.3214 109.115 92.3454 109.093C92.3604 109.056 92.3774 109.02 92.3943 108.983H92.3941Z" fill="#FFC700" fill-opacity="0.5"/>
<path d="M92.4959 109.216C92.5154 109.181 92.5339 109.147 92.5543 109.112C92.5099 109.16 92.4652 109.207 92.4215 109.255C92.409 109.279 92.3966 109.303 92.3848 109.327C92.3867 109.33 92.3888 109.332 92.3908 109.334C92.4255 109.295 92.4605 109.255 92.4959 109.216V109.216Z" fill="#FFC700" fill-opacity="0.5"/>
<path d="M92.4272 108.507C92.4381 108.512 92.4484 108.518 92.4597 108.523C92.475 108.498 92.4899 108.474 92.507 108.45C92.4804 108.469 92.4537 108.488 92.4272 108.506V108.507Z" fill="#FFC700" fill-opacity="0.5"/>
<path d="M92.621 109.056C92.6065 109.079 92.5946 109.102 92.5801 109.125C92.5991 109.105 92.6183 109.085 92.6372 109.065C92.6319 109.062 92.6261 109.059 92.621 109.056V109.056Z" fill="#FFC700" fill-opacity="0.5"/>
<path d="M93.0179 108.669C93.0514 108.628 93.0836 108.587 93.1181 108.546C93.0645 108.597 93.0113 108.648 92.9585 108.7C92.9654 108.702 92.9729 108.704 92.9797 108.706C92.9922 108.693 93.0055 108.681 93.0177 108.669H93.0179Z" fill="#FFC700" fill-opacity="0.5"/>
<path d="M92.3259 108.933C92.3116 108.967 92.2991 109.001 92.2871 109.035C92.3292 108.997 92.3714 108.959 92.4133 108.922C92.4 108.912 92.3869 108.902 92.3749 108.892C92.3586 108.906 92.3423 108.919 92.3259 108.933Z" fill="#FFC700" fill-opacity="0.5"/>
<path d="M92.6113 108.587C92.6131 108.587 92.6146 108.588 92.6166 108.589C92.6192 108.585 92.6214 108.581 92.6243 108.577C92.62 108.58 92.6158 108.584 92.6113 108.587Z" fill="#FFC700" fill-opacity="0.5"/>
<path d="M92.4756 108.968C92.4713 108.965 92.4662 108.962 92.4617 108.959C92.4536 108.974 92.4462 108.988 92.4385 109.003C92.4508 108.992 92.4632 108.98 92.4756 108.968Z" fill="#FFC700" fill-opacity="0.5"/>
<path d="M93.0213 108.61C93.0533 108.569 93.0853 108.528 93.1181 108.488C93.046 108.553 92.9743 108.619 92.9033 108.686C92.9132 108.689 92.9239 108.692 92.9344 108.694C92.9634 108.666 92.9922 108.638 93.0213 108.61V108.61Z" fill="#FFC700" fill-opacity="0.5"/>
<path d="M92.7998 108.344C92.7157 108.405 92.6318 108.467 92.5479 108.53C92.5421 108.539 92.5359 108.547 92.5303 108.556C92.544 108.562 92.5597 108.567 92.5738 108.573C92.6144 108.542 92.6549 108.51 92.6957 108.479C92.7292 108.434 92.7633 108.389 92.7996 108.344L92.7998 108.344Z" fill="#FFC700" fill-opacity="0.5"/>
<path d="M93.0879 108.381C93.0081 108.447 92.9287 108.515 92.8495 108.582C92.8315 108.606 92.8133 108.629 92.7959 108.652C92.803 108.654 92.8096 108.656 92.8163 108.658C92.8674 108.613 92.9191 108.569 92.9706 108.524C93.0098 108.477 93.0467 108.428 93.0879 108.381Z" fill="#FFC700" fill-opacity="0.5"/>
<path d="M92.8813 108.633C92.8689 108.645 92.8563 108.656 92.8438 108.667C92.8467 108.667 92.8491 108.668 92.8519 108.669C92.861 108.657 92.8719 108.645 92.8813 108.633Z" fill="#FFC700" fill-opacity="0.5"/>
<path d="M92.8376 108.504C92.7902 108.543 92.743 108.582 92.6958 108.621C92.71 108.626 92.7265 108.63 92.7411 108.635C92.7728 108.591 92.8039 108.547 92.8376 108.504Z" fill="#FFC700" fill-opacity="0.5"/>
<path d="M95.9285 106.487C95.9251 106.489 95.9212 106.491 95.9176 106.493C95.8693 106.519 95.823 106.549 95.7749 106.575C95.8331 106.543 95.8903 106.509 95.9489 106.478C95.9423 106.481 95.935 106.484 95.9283 106.487H95.9285Z" fill="#FFC700" fill-opacity="0.5"/>
<path d="M92.2494 109.371C92.2467 109.363 92.2428 109.355 92.2402 109.348C92.2267 109.362 92.2134 109.376 92.1999 109.39C92.1982 109.404 92.1973 109.417 92.1958 109.43C92.1962 109.438 92.1964 109.446 92.1971 109.455C92.2115 109.439 92.2256 109.423 92.24 109.407C92.2432 109.395 92.2462 109.383 92.2494 109.371Z" fill="#FFC700" fill-opacity="0.5"/>
<path d="M92.2204 109.273C92.2162 109.294 92.2119 109.315 92.2085 109.336C92.2162 109.328 92.2234 109.321 92.2309 109.313C92.2271 109.3 92.2239 109.286 92.2204 109.273Z" fill="#FFC700" fill-opacity="0.5"/>
<path d="M92.2602 108.94C92.2705 108.907 92.2823 108.874 92.2954 108.841C92.2617 108.868 92.228 108.896 92.1941 108.923C92.1931 108.932 92.1913 108.94 92.1909 108.949C92.1937 108.962 92.198 108.976 92.2019 108.989C92.2212 108.973 92.2405 108.957 92.2602 108.94Z" fill="#FFC700" fill-opacity="0.5"/>
<path d="M92.2409 109.006C92.2321 109.014 92.2236 109.022 92.2148 109.029C92.2187 109.041 92.2217 109.052 92.2262 109.063C92.2304 109.044 92.2357 109.025 92.2407 109.006H92.2409Z" fill="#FFC700" fill-opacity="0.5"/>
<path d="M92.3479 108.286C92.3732 108.248 92.4007 108.21 92.4315 108.171C92.3416 108.224 92.252 108.277 92.1616 108.331C92.1769 108.345 92.1895 108.36 92.2067 108.374C92.2537 108.345 92.3009 108.314 92.3479 108.286Z" fill="#FFC700" fill-opacity="0.5"/>
<path d="M92.2717 107.763C92.4189 107.698 92.5669 107.632 92.7126 107.569C92.8092 107.506 92.9158 107.444 93.0314 107.381C92.7377 107.502 92.4405 107.626 92.1401 107.754C92.1779 107.758 92.2206 107.762 92.2719 107.763H92.2717Z" fill="#FFC700" fill-opacity="0.5"/>
<path d="M92.3185 109.162C92.3089 109.172 92.2987 109.181 92.2891 109.191C92.2929 109.198 92.2972 109.204 92.3012 109.211C92.307 109.195 92.3123 109.178 92.3185 109.162Z" fill="#FFC700" fill-opacity="0.5"/>
<path d="M92.8415 108.177C92.8382 108.177 92.8346 108.177 92.8313 108.177C92.8252 108.183 92.8195 108.19 92.8135 108.197C92.8229 108.19 92.8323 108.184 92.8415 108.177Z" fill="#FFC700" fill-opacity="0.5"/>
<path d="M92.2239 109.467C92.2151 109.477 92.2073 109.487 92.1987 109.497C92.2002 109.513 92.2034 109.529 92.2056 109.545C92.2111 109.519 92.2175 109.493 92.2239 109.467Z" fill="#FFC700" fill-opacity="0.5"/>
<path d="M92.2241 107.671C92.6082 107.513 92.9869 107.361 93.3596 107.214C93.5637 107.115 93.7872 107.016 94.0276 106.917C93.5276 107.103 93.0169 107.296 92.4938 107.5C92.384 107.561 92.2941 107.618 92.2241 107.671Z" fill="#FFC700" fill-opacity="0.5"/>
<path d="M92.2693 109.417C92.2665 109.421 92.2633 109.424 92.2603 109.427C92.25 109.459 92.2397 109.491 92.2305 109.523C92.2491 109.501 92.2676 109.479 92.286 109.457C92.28 109.444 92.2747 109.431 92.2693 109.417Z" fill="#FFC700" fill-opacity="0.5"/>
<path d="M96.1309 106.379C96.1288 106.38 96.1269 106.381 96.125 106.382C96.125 106.382 96.1256 106.382 96.1258 106.382C96.1275 106.381 96.1292 106.38 96.1309 106.379V106.379Z" fill="#FFC700" fill-opacity="0.5"/>
<path d="M97.1403 105.855C96.659 106.023 96.1653 106.21 95.6617 106.41C95.4765 106.489 95.2988 106.568 95.1289 106.648C95.5816 106.456 96.0267 106.275 96.4635 106.109C96.6809 106.023 96.9062 105.938 97.1403 105.855Z" fill="#FFC700" fill-opacity="0.5"/>
<path d="M96.4976 106.031C95.5773 106.326 94.6066 106.651 93.5835 107.01C93.2859 107.127 93.0332 107.235 92.8223 107.334C93.5391 107.066 94.2326 106.815 94.904 106.58C95.3188 106.43 95.761 106.28 96.2171 106.13C96.3491 106.086 96.4841 106.04 96.6229 105.995C96.5808 106.007 96.5392 106.019 96.4976 106.031Z" fill="#FFC700" fill-opacity="0.5"/>
<path d="M97.1828 105.834C97.0107 105.892 96.8357 105.955 96.6606 106.016C96.4563 106.091 96.2585 106.167 96.0684 106.242C96.4748 106.088 96.8736 105.944 97.2646 105.811C97.2373 105.819 97.2096 105.826 97.1826 105.834H97.1828Z" fill="#FFC700" fill-opacity="0.5"/>
<path d="M95.9634 106.468C95.9949 106.451 96.0269 106.434 96.0586 106.417C96.0844 106.404 96.1089 106.389 96.1344 106.376C96.0771 106.406 96.0205 106.437 95.9634 106.468Z" fill="#FFC700" fill-opacity="0.5"/>
<path d="M96.1037 106.394C96.1037 106.394 96.1045 106.394 96.1054 106.393C96.0899 106.401 96.0745 106.409 96.0592 106.417C96.0258 106.435 95.9925 106.454 95.9595 106.472C96.0073 106.446 96.0554 106.42 96.1037 106.394Z" fill="#FFC700" fill-opacity="0.5"/>
<path d="M96.377 106.255C96.3734 106.257 96.3693 106.258 96.3654 106.26C96.3039 106.291 96.2421 106.321 96.1811 106.353C96.1691 106.359 96.1575 106.365 96.1455 106.371C96.2217 106.332 96.2989 106.294 96.376 106.256C96.3764 106.256 96.3768 106.255 96.3772 106.255H96.377Z" fill="#FFC700" fill-opacity="0.5"/>
<path d="M94.479 106.679C95.0955 106.474 95.6917 106.279 96.2674 106.097C96.1636 106.126 96.0623 106.155 95.9621 106.184C95.4076 106.361 94.9137 106.526 94.479 106.679Z" fill="#FFC700" fill-opacity="0.5"/>
<path d="M96.4041 106.07C96.3415 106.09 96.2792 106.11 96.217 106.131C96.1584 106.151 96.0988 106.171 96.0415 106.191C96.163 106.15 96.2842 106.11 96.4041 106.07Z" fill="#FFC700" fill-opacity="0.5"/>
<path d="M94.4463 106.793C94.9278 106.61 95.3962 106.44 95.8556 106.277C96.1455 106.17 96.4523 106.062 96.7771 105.953C96.3032 106.109 95.8172 106.274 95.3159 106.45C95.0022 106.567 94.7124 106.681 94.4463 106.793Z" fill="#FFC700" fill-opacity="0.5"/>
<path d="M96.2952 106.129C96.0059 106.234 95.7311 106.339 95.4731 106.443C95.824 106.31 96.1668 106.185 96.5056 106.066C96.6874 105.999 96.8749 105.933 97.0682 105.867C97.0543 105.871 97.0395 105.875 97.0255 105.88C96.7852 105.96 96.5421 106.043 96.2952 106.129V106.129Z" fill="#FFC700" fill-opacity="0.5"/>
<path d="M96.7158 105.981C96.7961 105.954 96.8772 105.926 96.9568 105.899C96.954 105.9 96.9512 105.901 96.9482 105.902C96.8699 105.928 96.7918 105.954 96.7158 105.981V105.981Z" fill="#FFC700" fill-opacity="0.5"/>
<path d="M93.9027 107.505C94.0082 107.428 94.1174 107.354 94.229 107.282C94.0526 107.382 93.8761 107.484 93.6993 107.59C93.6731 107.61 93.6471 107.63 93.6216 107.65C93.6387 107.648 93.6559 107.646 93.6735 107.643C93.7501 107.596 93.8265 107.551 93.9027 107.505Z" fill="#FFC700" fill-opacity="0.5"/>
<path d="M96.2161 106.302C96.1798 106.318 96.1433 106.334 96.1075 106.35C95.9953 106.404 95.8831 106.459 95.7711 106.516C95.6466 106.582 95.5239 106.649 95.4048 106.718C95.6339 106.595 95.8635 106.476 96.094 106.364C96.1345 106.343 96.1751 106.322 96.2163 106.302H96.2161Z" fill="#FFC700" fill-opacity="0.5"/>
<path d="M95.2979 106.697C95.4088 106.637 95.5206 106.577 95.6371 106.519C95.5056 106.58 95.374 106.643 95.2419 106.707C95.1447 106.756 95.0485 106.805 94.9537 106.856C94.8739 106.902 94.7954 106.947 94.7188 106.994C94.9123 106.891 95.1054 106.793 95.2979 106.697Z" fill="#FFC700" fill-opacity="0.5"/>
<path d="M94.9535 106.856C94.9887 106.836 95.0251 106.816 95.061 106.796C94.7524 106.95 94.4419 107.112 94.1302 107.283C94.0401 107.342 93.954 107.402 93.8701 107.462C94.087 107.338 94.3033 107.217 94.519 107.1C94.6604 107.016 94.8054 106.935 94.9535 106.856Z" fill="#FFC700" fill-opacity="0.5"/>
<path d="M93.4355 107.674C93.4594 107.67 93.4823 107.668 93.5064 107.665C93.5652 107.619 93.6252 107.574 93.6866 107.529C93.6031 107.577 93.5197 107.625 93.4355 107.674Z" fill="#FFC700" fill-opacity="0.5"/>
<path d="M95.5126 106.689C95.5304 106.678 95.5491 106.667 95.5671 106.656C95.4673 106.711 95.3678 106.767 95.2686 106.824C95.1849 106.875 95.1036 106.928 95.0229 106.981C95.1401 106.909 95.2579 106.84 95.3761 106.772C95.4216 106.744 95.4662 106.716 95.5126 106.689Z" fill="#FFC700" fill-opacity="0.5"/>
<path d="M93.472 108.192C93.452 108.212 93.4332 108.232 93.4136 108.253C93.4366 108.232 93.4601 108.212 93.4833 108.192H93.472Z" fill="#FFC700" fill-opacity="0.5"/>
<path d="M93.2842 108.317C93.3329 108.275 93.3816 108.233 93.4309 108.192H93.4026C93.3625 108.233 93.323 108.275 93.2842 108.317Z" fill="#FFC700" fill-opacity="0.5"/>
<path d="M95.8421 106.503C95.8421 106.503 95.8402 106.504 95.8394 106.505C95.8389 106.505 95.8385 106.505 95.8379 106.506C95.8394 106.505 95.8406 106.504 95.8419 106.503H95.8421Z" fill="#FFC700" fill-opacity="0.5"/>
<path d="M95.3901 106.713C95.2761 106.774 95.1628 106.836 95.0493 106.899C94.9425 106.965 94.8373 107.031 94.7358 107.098C94.8714 107.018 95.0073 106.939 95.1431 106.863C95.2251 106.813 95.3053 106.762 95.3901 106.713Z" fill="#FFC700" fill-opacity="0.5"/>
<path d="M95.6425 106.604C95.7052 106.569 95.7685 106.534 95.8324 106.5C95.6183 106.61 95.4046 106.725 95.1921 106.845C95.0939 106.905 94.9977 106.967 94.9033 107.029C94.9698 106.989 95.0364 106.95 95.1029 106.911C95.276 106.803 95.4554 106.702 95.6425 106.604V106.604Z" fill="#FFC700" fill-opacity="0.5"/>
<path d="M95.9002 106.485C95.9594 106.453 96.0195 106.421 96.0798 106.39C96.0512 106.403 96.0227 106.416 95.9946 106.429C95.9002 106.478 95.806 106.526 95.712 106.576C95.6451 106.614 95.5777 106.651 95.5123 106.689C95.4781 106.71 95.4451 106.731 95.4116 106.752C95.5732 106.66 95.7363 106.571 95.9 106.485L95.9002 106.485Z" fill="#FFC700" fill-opacity="0.5"/>
<path d="M95.7214 106.566C95.7353 106.558 95.7495 106.55 95.7636 106.542C95.7227 106.563 95.683 106.584 95.6428 106.604C95.6042 106.626 95.5662 106.649 95.5278 106.671C95.5924 106.636 95.6568 106.6 95.7216 106.566H95.7214Z" fill="#FFC700" fill-opacity="0.5"/>
<path d="M94.1856 107.2C94.0034 107.294 93.8206 107.391 93.6372 107.49C93.5548 107.548 93.4767 107.605 93.4014 107.664C93.5619 107.573 93.7224 107.481 93.882 107.394C93.9805 107.328 94.0813 107.263 94.1856 107.2Z" fill="#FFC700" fill-opacity="0.5"/>
<path d="M93.208 107.607C93.4436 107.486 93.6786 107.366 93.9107 107.253C94.0159 107.189 94.1244 107.126 94.2397 107.063C93.9901 107.179 93.7386 107.298 93.4846 107.422C93.3874 107.484 93.2945 107.545 93.208 107.607Z" fill="#FFC700" fill-opacity="0.5"/>
<path d="M93.6802 107.396C93.4761 107.5 93.2716 107.606 93.0654 107.716C93.1034 107.712 93.1442 107.707 93.1843 107.703C93.2575 107.663 93.3302 107.625 93.4032 107.586C93.4905 107.522 93.5834 107.459 93.6804 107.396H93.6802Z" fill="#FFC700" fill-opacity="0.5"/>
<path d="M92.5588 109.021C92.5513 109.029 92.5438 109.036 92.536 109.044C92.5133 109.083 92.4912 109.121 92.4697 109.161C92.509 109.12 92.5487 109.08 92.5884 109.039C92.5781 109.033 92.5686 109.027 92.5588 109.021Z" fill="#FFC700" fill-opacity="0.5"/>
<path d="M93.1924 108.19C93.1901 108.19 93.1877 108.19 93.1854 108.19C93.1798 108.197 93.1745 108.203 93.1689 108.209C93.1768 108.203 93.1845 108.197 93.1924 108.191V108.19Z" fill="#FFC700" fill-opacity="0.5"/>
<path d="M95.2491 106.694C95.3847 106.622 95.5251 106.552 95.6695 106.482C95.3423 106.629 95.0131 106.783 94.681 106.947C94.5548 107.019 94.4329 107.091 94.3164 107.163C94.6292 106.999 94.9399 106.842 95.2489 106.694L95.2491 106.694Z" fill="#FFC700" fill-opacity="0.5"/>
<path d="M93.2659 108.191C93.255 108.191 93.244 108.191 93.2331 108.191C93.1762 108.236 93.1191 108.28 93.0625 108.325C93.0179 108.375 92.9747 108.426 92.9331 108.477C93.0217 108.403 93.1108 108.331 93.2 108.26C93.2215 108.237 93.244 108.214 93.2659 108.191Z" fill="#FFC700" fill-opacity="0.5"/>
<path d="M92.9116 108.648C93.0103 108.557 93.1097 108.468 93.2099 108.381C93.2483 108.336 93.2871 108.292 93.3264 108.249C93.2307 108.328 93.1356 108.41 93.0414 108.493C92.9977 108.544 92.9528 108.596 92.9116 108.648Z" fill="#FFC700" fill-opacity="0.5"/>
<path d="M93.3201 108.192C93.3081 108.202 93.2961 108.212 93.2838 108.221C93.2315 108.277 93.178 108.331 93.1289 108.387C93.207 108.322 93.2855 108.257 93.3645 108.193C93.3491 108.193 93.3355 108.192 93.3203 108.192H93.3201Z" fill="#FFC700" fill-opacity="0.5"/>
<path d="M93.3986 108.24C93.3284 108.3 93.2584 108.362 93.1889 108.424C93.1387 108.481 93.0859 108.536 93.0381 108.594C93.1108 108.526 93.184 108.459 93.2576 108.392C93.3042 108.341 93.3503 108.29 93.3986 108.24Z" fill="#FFC700" fill-opacity="0.5"/>
<path d="M92.9316 108.392C92.9756 108.34 93.0215 108.288 93.0687 108.237C92.9874 108.298 92.906 108.358 92.8254 108.42C92.7855 108.469 92.7475 108.518 92.7114 108.568C92.7846 108.509 92.858 108.45 92.9318 108.392H92.9316Z" fill="#FFC700" fill-opacity="0.5"/>
<path d="M92.9128 108.316C92.9705 108.274 93.028 108.23 93.0858 108.188C93.0673 108.188 93.0491 108.187 93.0308 108.187C92.9901 108.23 92.9508 108.273 92.9128 108.316Z" fill="#FFC700" fill-opacity="0.5"/>
<path d="M92.9821 107.669C92.9383 107.691 92.8941 107.714 92.8501 107.737C92.8653 107.735 92.8825 107.734 92.8982 107.732C92.9254 107.711 92.9535 107.691 92.9823 107.67L92.9821 107.669Z" fill="#FFC700" fill-opacity="0.5"/>
<path d="M95.0298 106.865C95.2761 106.734 95.522 106.609 95.7677 106.49C95.9093 106.417 96.0563 106.347 96.205 106.277C95.9383 106.396 95.6703 106.523 95.4018 106.657C95.275 106.725 95.1495 106.795 95.0298 106.865Z" fill="#FFC700" fill-opacity="0.5"/>
<path d="M94.4053 107.016C94.8151 106.822 95.2204 106.639 95.6195 106.468C95.7731 106.398 95.9332 106.328 96.0969 106.259C95.6772 106.426 95.2507 106.606 94.8175 106.799C94.6741 106.871 94.5366 106.943 94.4053 107.016Z" fill="#FFC700" fill-opacity="0.5"/>
<path d="M96.0229 106.248C95.6772 106.377 95.3255 106.513 94.9685 106.655C94.7838 106.736 94.6085 106.816 94.4424 106.897C94.7868 106.75 95.1279 106.609 95.4629 106.476C95.6416 106.4 95.8285 106.324 96.0227 106.248L96.0229 106.248Z" fill="#FFC700" fill-opacity="0.5"/>
<path d="M93.7295 107.273C94.0134 107.14 94.2945 107.012 94.5732 106.888C94.7107 106.819 94.8538 106.749 95.0036 106.68C94.7069 106.804 94.4065 106.933 94.1026 107.068C93.9717 107.136 93.8466 107.205 93.7295 107.273Z" fill="#FFC700" fill-opacity="0.5"/>
<path d="M95.9054 106.491C96.0271 106.426 96.1496 106.363 96.2729 106.301C96.25 106.311 96.227 106.322 96.2045 106.332C96.0788 106.395 95.9539 106.459 95.8294 106.526C95.767 106.561 95.7052 106.597 95.644 106.634C95.7196 106.591 95.7953 106.55 95.8717 106.509C95.8826 106.503 95.8942 106.497 95.9054 106.491Z" fill="#FFC700" fill-opacity="0.5"/>
<path d="M95.9601 106.374C95.8374 106.432 95.7136 106.49 95.5962 106.551C95.8223 106.443 96.0481 106.34 96.2729 106.241C96.1678 106.284 96.0637 106.328 95.9601 106.374Z" fill="#FFC700" fill-opacity="0.5"/>
<path d="M93.4367 107.26C93.8356 107.091 94.2294 106.929 94.6154 106.776C94.8327 106.679 95.0668 106.582 95.314 106.484C94.8694 106.649 94.4139 106.825 93.9502 107.009C93.7646 107.094 93.5929 107.178 93.4365 107.26H93.4367Z" fill="#FFC700" fill-opacity="0.5"/>
<path d="M92.6848 108.224C92.5812 108.292 92.4773 108.36 92.3737 108.43C92.3657 108.443 92.3589 108.456 92.3516 108.468C92.3627 108.475 92.3765 108.481 92.3883 108.487C92.4511 108.443 92.514 108.4 92.5769 108.357C92.6108 108.312 92.6466 108.268 92.685 108.224H92.6848Z" fill="#FFC700" fill-opacity="0.5"/>
<path d="M92.4652 109.076C92.4802 109.047 92.497 109.02 92.5131 108.991C92.5096 108.989 92.5058 108.987 92.5023 108.984C92.4669 109.018 92.4319 109.052 92.3965 109.087C92.38 109.121 92.3646 109.156 92.3491 109.191C92.3875 109.152 92.4268 109.115 92.4652 109.076Z" fill="#FFC700" fill-opacity="0.5"/>
<path d="M92.6406 107.752C92.6775 107.75 92.7168 107.747 92.7565 107.743C92.8897 107.677 93.0221 107.613 93.1541 107.549C93.2506 107.485 93.3551 107.42 93.4659 107.355C93.2039 107.476 92.9399 107.599 92.6732 107.727C92.6623 107.735 92.6516 107.744 92.6408 107.752H92.6406Z" fill="#FFC700" fill-opacity="0.5"/>
<path d="M95.7816 106.562C95.7942 106.555 95.8062 106.547 95.8191 106.54C95.7281 106.59 95.6376 106.641 95.5475 106.693C95.5215 106.709 95.4956 106.725 95.4694 106.742C95.461 106.747 95.4526 106.752 95.4438 106.757C95.5758 106.679 95.7095 106.604 95.8438 106.53C95.8232 106.541 95.8026 106.551 95.7818 106.562H95.7816Z" fill="#FFC700" fill-opacity="0.5"/>
<path d="M94.1912 106.972C93.8481 107.115 93.5001 107.263 93.1476 107.418C93.0394 107.48 92.9399 107.542 92.8491 107.602C93.1538 107.462 93.4548 107.326 93.7529 107.194C93.89 107.12 94.0361 107.047 94.1912 106.972V106.972Z" fill="#FFC700" fill-opacity="0.5"/>
<path d="M95.2997 106.621C95.1649 106.687 95.0349 106.754 94.9092 106.821C95.2473 106.66 95.5823 106.51 95.9144 106.366C96.02 106.318 96.1273 106.27 96.2371 106.223C96.1726 106.248 96.1082 106.274 96.044 106.3C95.7977 106.402 95.5501 106.509 95.2997 106.621Z" fill="#FFC700" fill-opacity="0.5"/>
<path d="M94.659 107.209C94.7268 107.16 94.7953 107.111 94.8643 107.064C94.8 107.104 94.7358 107.143 94.6719 107.183C94.5933 107.238 94.5189 107.295 94.4434 107.351C94.5152 107.303 94.5869 107.255 94.659 107.209Z" fill="#FFC700" fill-opacity="0.5"/>
<path d="M94.0942 107.496C94.1886 107.435 94.2828 107.375 94.3775 107.316C94.4798 107.243 94.5843 107.172 94.6903 107.104C94.5729 107.172 94.456 107.243 94.3391 107.314C94.2552 107.374 94.1736 107.434 94.0942 107.496V107.496Z" fill="#FFC700" fill-opacity="0.5"/>
<path d="M94.1496 107.162C94.0466 107.223 93.9466 107.284 93.8516 107.346C94.0666 107.234 94.2794 107.128 94.492 107.023C94.6922 106.913 94.901 106.806 95.1162 106.704C94.7972 106.849 94.4749 107.002 94.1494 107.162H94.1496Z" fill="#FFC700" fill-opacity="0.5"/>
<path d="M95.715 106.535C95.7314 106.527 95.747 106.518 95.7637 106.509C95.6427 106.567 95.5234 106.626 95.4067 106.688C95.3535 106.718 95.2992 106.747 95.2471 106.778C95.4031 106.694 95.5591 106.614 95.715 106.535Z" fill="#FFC700" fill-opacity="0.5"/>
<path d="M95.4066 106.688C95.4799 106.646 95.555 106.606 95.631 106.565C95.3712 106.695 95.1111 106.832 94.851 106.975C94.7444 107.041 94.6399 107.107 94.5391 107.175C94.6933 107.085 94.8476 106.997 95.0019 106.912C95.1338 106.835 95.2686 106.76 95.4066 106.688Z" fill="#FFC700" fill-opacity="0.5"/>
<path d="M94.5566 107.221C94.4676 107.283 94.3807 107.346 94.2959 107.41C94.4116 107.334 94.5274 107.26 94.6439 107.187C94.7287 107.128 94.8145 107.069 94.9031 107.012C94.7873 107.08 94.6718 107.15 94.5566 107.221V107.221Z" fill="#FFC700" fill-opacity="0.5"/>
<path d="M95.2487 106.88C95.217 106.901 95.1858 106.922 95.1543 106.943C95.2408 106.888 95.329 106.836 95.4167 106.783C95.3611 106.816 95.3039 106.846 95.2487 106.88Z" fill="#FFC700" fill-opacity="0.5"/>
<path d="M95.7426 106.572C95.5913 106.655 95.4413 106.741 95.292 106.829C95.2448 106.859 95.198 106.891 95.1519 106.922C95.2394 106.869 95.3269 106.815 95.4153 106.764C95.5226 106.698 95.6318 106.635 95.7426 106.572Z" fill="#FFC700" fill-opacity="0.5"/>
<path d="M95.0929 106.947C94.9968 107.006 94.9013 107.066 94.806 107.126C94.7086 107.194 94.6118 107.261 94.5181 107.331C94.6296 107.255 94.7416 107.181 94.8545 107.109C94.9333 107.054 95.0118 107 95.0929 106.947Z" fill="#FFC700" fill-opacity="0.5"/>
<path d="M94.958 107.058C95.0271 107.011 95.096 106.965 95.1668 106.919C95.1359 106.938 95.105 106.956 95.0743 106.975C95.0353 107.002 94.9964 107.03 94.958 107.058V107.058Z" fill="#FFC700" fill-opacity="0.5"/>
<path d="M94.7165 107.035C94.8087 106.977 94.9012 106.92 94.9986 106.863C94.8328 106.949 94.6669 107.038 94.5006 107.129C94.4062 107.19 94.3159 107.251 94.2271 107.313C94.3903 107.218 94.5536 107.125 94.7165 107.035Z" fill="#FFC700" fill-opacity="0.5"/>
<path d="M46.08 54.7523C46.08 52.2935 47.9497 50.3981 50.3752 50.3981C52.8006 50.3981 54.6704 52.2935 54.6704 54.7523C54.6704 57.2112 52.8006 59.1064 50.3752 59.1064C47.9497 59.1064 46.08 57.211 46.08 54.7523ZM40.395 54.7523C40.395 60.0029 44.5892 64.2288 50.3752 64.2288C56.1612 64.2288 60.3553 60.0029 60.3553 54.7523C60.3553 49.5018 56.1612 45.2759 50.3752 45.2759C44.5892 45.2759 40.395 49.502 40.395 54.7523Z" fill="white"/>
<path d="M63.6411 63.7166H69.3261V55.1364L75.8953 63.7166H80.8221V45.7881H75.1374V54.3682L68.5682 45.7881H63.6413V63.7166H63.6411Z" fill="white"/>
<path d="M88.4026 63.7168H94.0876V51.0387H98.7619V45.7881H83.7285V51.0387H88.4029L88.4026 63.7168Z" fill="white"/>
<path d="M101.668 63.7166H108.742C114.301 63.7166 118.344 59.5931 118.344 54.7523C118.344 49.9115 114.301 45.7881 108.742 45.7881H101.668V63.7166ZM107.353 58.8503V50.6543H108.616C111.042 50.6543 112.659 52.2934 112.659 54.7523C112.659 57.2112 111.042 58.8503 108.616 58.8503H107.353Z" fill="white"/>
<path d="M121.63 63.7168H135.905V58.9785H127.314V56.8014H133.631V52.7034H127.314V50.5264H135.652V45.7881H121.629V63.7166L121.63 63.7168Z" fill="white"/>
<path d="M139.317 63.7166H145.002V59.3626L146.517 57.5697L150.307 63.7166H156.75L150.307 53.2157L156.245 45.7881H149.928L145.001 51.935V45.7881H139.316V63.7166H139.317Z" fill="white"/>
<path d="M41.3682 91.679H48.3017C53.7493 91.679 57.7113 87.5555 57.7113 82.7147C57.7113 77.8739 53.7493 73.7505 48.3017 73.7505H41.3682V91.679ZM46.9398 86.8127V78.6167H48.1779C50.5551 78.6167 52.1399 80.2558 52.1399 82.7147C52.1399 85.1736 50.5551 86.8127 48.1779 86.8127H46.9398Z" fill="white"/>
<path d="M60.9297 91.6792H74.9205V86.9409H66.5014V84.7639H72.692V80.6658H66.5014V78.4888H74.6729V73.7505H60.9297V91.679V91.6792Z" fill="white"/>
<path d="M39.7585 117.081C40.2784 117.67 40.9223 118.182 41.6405 118.617C42.9034 119.411 44.6863 120.154 47.0634 120.154C51.5206 120.154 54.2446 117.337 54.2446 114.263C54.2446 108.5 46.4444 108.859 46.4444 106.835C46.4444 106.323 46.9396 105.939 47.9303 105.939C48.7969 105.939 49.416 106.272 49.8865 106.579C50.1341 106.759 50.3571 106.989 50.5302 107.22L53.7494 103.762C53.3284 103.275 52.8085 102.866 52.1892 102.481C51.1246 101.841 49.5644 101.201 47.3111 101.201C42.9528 101.201 40.3775 103.864 40.3775 106.835C40.3775 112.598 48.1777 112.239 48.1777 114.263C48.1777 114.903 47.7071 115.416 46.4442 115.416C45.4538 115.416 44.5871 115.006 43.9679 114.519C43.5965 114.263 43.2746 113.956 42.9775 113.623L39.7585 117.081Z" fill="white"/>
<path d="M70.1371 112.982C69.815 113.367 69.419 113.7 68.998 114.007C68.2798 114.519 67.2151 115.031 65.9275 115.031C63.4512 115.031 61.5941 113.136 61.5941 110.677C61.5941 108.219 63.4512 106.323 65.9275 106.323C67.2151 106.323 68.2551 106.836 68.9484 107.348C69.3694 107.655 69.7161 107.988 70.0133 108.372L73.3563 104.659C72.8361 104.018 72.2171 103.455 71.4743 102.942C70.2113 102.046 68.3543 101.201 65.8037 101.201C60.1331 101.201 56.0225 105.427 56.0225 110.677C56.0225 115.928 60.1331 120.154 65.8037 120.154C68.3543 120.154 70.2609 119.334 71.5485 118.438C72.316 117.925 72.96 117.336 73.4801 116.696L70.1371 112.982V112.982Z" fill="white"/>
<path d="M76.001 119.641H81.5726V113.11H86.7727V119.641H92.3443V101.713H86.7727V107.988H81.5726V101.713H76.001V119.641Z" fill="white"/>
<path d="M101.056 110.677C101.056 108.218 102.888 106.323 105.266 106.323C107.643 106.323 109.475 108.218 109.475 110.677C109.475 113.136 107.643 115.031 105.266 115.031C102.888 115.031 101.056 113.136 101.056 110.677ZM95.4844 110.677C95.4844 115.928 99.5951 120.154 105.266 120.154C110.936 120.154 115.047 115.928 115.047 110.677C115.047 105.427 110.936 101.201 105.266 101.201C99.5953 101.201 95.4844 105.427 95.4844 110.677Z" fill="white"/>
<path d="M122.767 110.677C122.767 108.218 124.6 106.323 126.977 106.323C129.354 106.323 131.186 108.218 131.186 110.677C131.186 113.136 129.354 115.031 126.977 115.031C124.6 115.031 122.767 113.136 122.767 110.677ZM117.196 110.677C117.196 115.928 121.306 120.154 126.977 120.154C132.647 120.154 136.758 115.928 136.758 110.677C136.758 105.427 132.647 101.201 126.977 101.201C121.306 101.201 117.196 105.427 117.196 110.677Z" fill="white"/>
<path d="M139.898 119.641H145.47V111.061L151.908 119.641H156.737V101.713H151.165V110.293L144.727 101.713H139.898V119.641H139.898Z" fill="white"/>
<path d="M41.4058 147.604H47.0907V137.999L51.3861 143.506L55.6813 137.999V147.604H61.3663V129.675H56.313L51.3861 136.078L46.4592 129.675H41.406L41.4058 147.604Z" fill="white"/>
<path d="M71.7261 140.176L73.1159 135.182H73.2423L74.632 140.176H71.7263H71.7261ZM63.5146 147.604H69.5785L70.5891 144.146H75.7688L76.7794 147.604H82.8433L76.4005 129.675H69.9577L63.5146 147.604Z" fill="white"/>
<path d="M91.0557 140.176L92.4455 135.182H92.5718L93.9616 140.176H91.0559H91.0557ZM82.8442 147.604H88.9081L89.9187 144.146H95.0984L96.109 147.604H102.173L95.7301 129.675H89.2873L82.8445 147.604H82.8442Z" fill="white"/>
<path d="M104.322 147.604H110.006V143.25L111.522 141.457L115.312 147.604H121.755L115.312 137.103L121.25 129.675H114.933L110.006 135.822V129.675H104.321V147.604H104.322Z" fill="white"/>
</g>
<defs>
<clipPath id="clip0_34_5024">
<rect width="197" height="221" fill="white"/>
</clipPath>
<clipPath id="clip1_34_5024">
<rect width="166" height="174" fill="white" transform="translate(16 19)"/>
</clipPath>
</defs>
</svg>
